<svg width="1264" height="404" viewBox="0 0 1264 404" fill="none" xmlns="http://www.w3.org/2000/svg">
<path d="M3.92307 207.285C3.49032 207.285 3.09759 207.204 2.74487 207.04C2.39215 206.875 2.11205 206.636 1.90457 206.325C1.69709 206.01 1.59335 205.631 1.59335 205.187C1.59335 204.795 1.67042 204.478 1.82455 204.235C1.97867 203.989 2.18467 203.796 2.44254 203.657C2.70041 203.518 2.98496 203.414 3.29618 203.346C3.61036 203.275 3.92603 203.218 4.24318 203.177C4.65814 203.124 4.99456 203.084 5.25243 203.057C5.51326 203.027 5.70296 202.978 5.82152 202.91C5.94304 202.842 6.00381 202.723 6.00381 202.554V202.519C6.00381 202.08 5.88376 201.739 5.64368 201.496C5.40656 201.253 5.04643 201.132 4.5633 201.132C4.06238 201.132 3.66965 201.241 3.3851 201.461C3.10055 201.68 2.90048 201.914 2.78489 202.163L1.78898 201.808C1.96682 201.393 2.20394 201.069 2.50034 200.838C2.79971 200.604 3.12575 200.441 3.47847 200.349C3.83415 200.254 4.1839 200.207 4.52773 200.207C4.74706 200.207 4.99901 200.234 5.28355 200.287C5.57106 200.337 5.8482 200.443 6.11496 200.603C6.38468 200.763 6.60847 201.004 6.78631 201.327C6.96415 201.65 7.05307 202.083 7.05307 202.626V207.125H6.00381V206.2H5.95045C5.87932 206.348 5.76076 206.507 5.59477 206.676C5.42879 206.845 5.20797 206.989 4.93232 207.107C4.65666 207.226 4.32025 207.285 3.92307 207.285ZM4.08313 206.342C4.49809 206.342 4.84784 206.261 5.13239 206.098C5.4199 205.935 5.63627 205.724 5.78151 205.467C5.92971 205.209 6.00381 204.938 6.00381 204.653V203.693C5.95935 203.746 5.86153 203.795 5.71037 203.839C5.56217 203.881 5.39026 203.918 5.19463 203.951C5.00197 203.98 4.81376 204.007 4.62999 204.031C4.44918 204.051 4.30246 204.069 4.18983 204.084C3.91714 204.119 3.66224 204.177 3.42511 204.257C3.19096 204.334 3.00126 204.451 2.85602 204.609C2.71375 204.763 2.64261 204.973 2.64261 205.24C2.64261 205.604 2.77748 205.88 3.0472 206.067C3.31989 206.251 3.6652 206.342 4.08313 206.342ZM11.7425 207.267C11.1023 207.267 10.551 207.116 10.0886 206.814C9.6262 206.511 9.27052 206.095 9.02154 205.564C8.77257 205.034 8.64808 204.428 8.64808 203.746C8.64808 203.052 8.77553 202.44 9.03044 201.91C9.28831 201.376 9.64695 200.96 10.1064 200.66C10.5688 200.358 11.1082 200.207 11.7247 200.207C12.2049 200.207 12.6376 200.296 13.023 200.474C13.4083 200.652 13.724 200.901 13.97 201.221C14.216 201.541 14.3686 201.914 14.4279 202.341H13.3786C13.2986 202.03 13.1208 201.754 12.8451 201.514C12.5724 201.271 12.2049 201.15 11.7425 201.15C11.3335 201.15 10.9748 201.256 10.6666 201.47C10.3613 201.68 10.1227 201.978 9.95076 202.363C9.78181 202.746 9.69734 203.195 9.69734 203.71C9.69734 204.238 9.78033 204.697 9.94632 205.089C10.1153 205.48 10.3524 205.784 10.6577 206C10.9659 206.216 11.3275 206.325 11.7425 206.325C12.0152 206.325 12.2627 206.277 12.485 206.182C12.7073 206.088 12.8955 205.951 13.0496 205.773C13.2038 205.596 13.3134 205.382 13.3786 205.133H14.4279C14.3686 205.536 14.2219 205.899 13.9878 206.222C13.7566 206.543 13.4498 206.797 13.0674 206.987C12.688 207.174 12.2464 207.267 11.7425 207.267ZM18.9317 200.296V201.185H15.3927V200.296H18.9317ZM16.4242 198.66H17.4734V205.169C17.4734 205.465 17.5164 205.687 17.6024 205.836C17.6913 205.981 17.8039 206.079 17.9403 206.129C18.0796 206.176 18.2263 206.2 18.3804 206.2C18.496 206.2 18.5909 206.194 18.665 206.182C18.7391 206.168 18.7983 206.156 18.8428 206.147L19.0562 207.089C18.9851 207.116 18.8858 207.143 18.7583 207.169C18.6309 207.199 18.4693 207.214 18.2737 207.214C17.9773 207.214 17.6868 207.15 17.4023 207.023C17.1207 206.895 16.8866 206.701 16.6998 206.44C16.5161 206.179 16.4242 205.85 16.4242 205.453V198.66Z" fill="#EDF738"/>
<rect x="28.2812" y="203.484" width="24" height="1" fill="#EDF738"/>
<path d="M63.8976 200.841V201.66H60.6413V200.841H63.8976ZM61.5903 199.336H62.5558V205.325C62.5558 205.598 62.5953 205.802 62.6744 205.939C62.7563 206.072 62.8599 206.162 62.9853 206.209C63.1135 206.252 63.2485 206.274 63.3903 206.274C63.4967 206.274 63.584 206.269 63.6522 206.258C63.7203 206.244 63.7749 206.233 63.8158 206.225L64.0122 207.092C63.9467 207.117 63.8553 207.141 63.7381 207.166C63.6208 207.193 63.4722 207.207 63.2922 207.207C63.0194 207.207 62.7522 207.148 62.4903 207.031C62.2313 206.914 62.0158 206.735 61.844 206.495C61.6749 206.255 61.5903 205.952 61.5903 205.587V199.336ZM67.8351 207.256C67.2678 207.256 66.7701 207.121 66.3419 206.851C65.9165 206.581 65.5838 206.203 65.3438 205.718C65.1065 205.232 64.9878 204.665 64.9878 204.016C64.9878 203.361 65.1065 202.79 65.3438 202.302C65.5838 201.814 65.9165 201.435 66.3419 201.165C66.7701 200.895 67.2678 200.76 67.8351 200.76C68.4024 200.76 68.8988 200.895 69.3242 201.165C69.7524 201.435 70.0851 201.814 70.3224 202.302C70.5624 202.79 70.6824 203.361 70.6824 204.016C70.6824 204.665 70.5624 205.232 70.3224 205.718C70.0851 206.203 69.7524 206.581 69.3242 206.851C68.8988 207.121 68.4024 207.256 67.8351 207.256ZM67.8351 206.389C68.266 206.389 68.6206 206.278 68.8988 206.057C69.1769 205.836 69.3828 205.546 69.5165 205.186C69.6501 204.826 69.7169 204.436 69.7169 204.016C69.7169 203.596 69.6501 203.205 69.5165 202.842C69.3828 202.479 69.1769 202.186 68.8988 201.962C68.6206 201.739 68.266 201.627 67.8351 201.627C67.4042 201.627 67.0497 201.739 66.7715 201.962C66.4933 202.186 66.2874 202.479 66.1538 202.842C66.0201 203.205 65.9533 203.596 65.9533 204.016C65.9533 204.436 66.0201 204.826 66.1538 205.186C66.2874 205.546 66.4933 205.836 66.7715 206.057C67.0497 206.278 67.4042 206.389 67.8351 206.389ZM74.6925 209.612C74.2261 209.612 73.8252 209.552 73.4898 209.432C73.1543 209.315 72.8748 209.16 72.6511 208.966C72.4302 208.775 72.2543 208.57 72.1234 208.352L72.8925 207.812C72.9798 207.927 73.0902 208.058 73.2239 208.205C73.3575 208.355 73.5402 208.485 73.772 208.594C74.0066 208.705 74.3134 208.761 74.6925 208.761C75.1998 208.761 75.6184 208.639 75.9484 208.393C76.2784 208.148 76.4434 207.763 76.4434 207.24V205.963H76.3616C76.2907 206.078 76.1898 206.22 76.0589 206.389C75.9307 206.555 75.7452 206.704 75.5025 206.835C75.2625 206.963 74.938 207.027 74.5289 207.027C74.0216 207.027 73.5661 206.907 73.1625 206.667C72.7616 206.427 72.4439 206.078 72.2093 205.62C71.9775 205.161 71.8616 204.605 71.8616 203.95C71.8616 203.307 71.9748 202.746 72.2011 202.269C72.4275 201.789 72.7425 201.418 73.1461 201.156C73.5498 200.892 74.0161 200.76 74.5452 200.76C74.9543 200.76 75.2789 200.828 75.5189 200.964C75.7616 201.098 75.947 201.25 76.0752 201.422C76.2061 201.591 76.307 201.73 76.378 201.84H76.4761V200.841H77.4089V207.305C77.4089 207.845 77.2861 208.284 77.0407 208.622C76.798 208.963 76.4707 209.213 76.0589 209.371C75.6498 209.532 75.1943 209.612 74.6925 209.612ZM74.6598 206.16C75.047 206.16 75.3743 206.071 75.6416 205.894C75.9089 205.716 76.112 205.461 76.2511 205.129C76.3902 204.796 76.4598 204.398 76.4598 203.934C76.4598 203.481 76.3916 203.082 76.2552 202.735C76.1189 202.389 75.917 202.118 75.6498 201.921C75.3825 201.725 75.0525 201.627 74.6598 201.627C74.2507 201.627 73.9098 201.73 73.637 201.938C73.367 202.145 73.1639 202.423 73.0275 202.772C72.8939 203.121 72.827 203.509 72.827 203.934C72.827 204.37 72.8952 204.756 73.0316 205.092C73.1707 205.425 73.3752 205.686 73.6452 205.877C73.918 206.065 74.2561 206.16 74.6598 206.16ZM81.8107 207.256C81.2052 207.256 80.683 207.122 80.2439 206.855C79.8075 206.585 79.4707 206.209 79.2334 205.726C78.9989 205.24 78.8816 204.676 78.8816 204.032C78.8816 203.389 78.9989 202.821 79.2334 202.33C79.4707 201.837 79.8007 201.452 80.2234 201.177C80.6489 200.899 81.1452 200.76 81.7125 200.76C82.0398 200.76 82.363 200.814 82.682 200.923C83.0011 201.032 83.2916 201.21 83.5534 201.455C83.8152 201.698 84.0239 202.02 84.1793 202.42C84.3348 202.821 84.4125 203.315 84.4125 203.901V204.31H79.5689V203.476H83.4307C83.4307 203.121 83.3598 202.805 83.218 202.527C83.0789 202.249 82.8798 202.029 82.6207 201.868C82.3643 201.707 82.0616 201.627 81.7125 201.627C81.328 201.627 80.9952 201.722 80.7143 201.913C80.4361 202.101 80.222 202.347 80.072 202.65C79.922 202.952 79.847 203.277 79.847 203.623V204.18C79.847 204.654 79.9289 205.056 80.0925 205.386C80.2589 205.714 80.4893 205.963 80.7839 206.135C81.0784 206.304 81.4207 206.389 81.8107 206.389C82.0643 206.389 82.2934 206.353 82.498 206.282C82.7052 206.209 82.8839 206.1 83.0339 205.955C83.1839 205.808 83.2998 205.625 83.3816 205.407L84.3143 205.669C84.2161 205.985 84.0511 206.263 83.8193 206.503C83.5875 206.74 83.3011 206.926 82.9602 207.06C82.6193 207.19 82.2361 207.256 81.8107 207.256ZM88.6139 200.841V201.66H85.3575V200.841H88.6139ZM86.3066 199.336H87.272V205.325C87.272 205.598 87.3116 205.802 87.3907 205.939C87.4725 206.072 87.5761 206.162 87.7016 206.209C87.8298 206.252 87.9648 206.274 88.1066 206.274C88.213 206.274 88.3002 206.269 88.3684 206.258C88.4366 206.244 88.4911 206.233 88.532 206.225L88.7284 207.092C88.663 207.117 88.5716 207.141 88.4543 207.166C88.337 207.193 88.1884 207.207 88.0084 207.207C87.7357 207.207 87.4684 207.148 87.2066 207.031C86.9475 206.914 86.732 206.735 86.5602 206.495C86.3911 206.255 86.3066 205.952 86.3066 205.587V199.336ZM91.1666 203.345V207.125H90.2011V198.747H91.1666V201.823H91.2484C91.3957 201.499 91.6166 201.241 91.9111 201.05C92.2084 200.856 92.6039 200.76 93.0975 200.76C93.5257 200.76 93.9007 200.845 94.2225 201.017C94.5443 201.186 94.7939 201.447 94.9711 201.799C95.1511 202.148 95.2411 202.592 95.2411 203.132V207.125H94.2757V203.198C94.2757 202.699 94.1461 202.313 93.887 202.04C93.6307 201.765 93.2748 201.627 92.8193 201.627C92.503 201.627 92.2193 201.694 91.9684 201.827C91.7202 201.961 91.5239 202.156 91.3793 202.412C91.2375 202.669 91.1666 202.98 91.1666 203.345ZM99.6419 207.256C99.0365 207.256 98.5142 207.122 98.0751 206.855C97.6388 206.585 97.3019 206.209 97.0647 205.726C96.8301 205.24 96.7128 204.676 96.7128 204.032C96.7128 203.389 96.8301 202.821 97.0647 202.33C97.3019 201.837 97.6319 201.452 98.0547 201.177C98.4801 200.899 98.9765 200.76 99.5438 200.76C99.871 200.76 100.194 200.814 100.513 200.923C100.832 201.032 101.123 201.21 101.385 201.455C101.646 201.698 101.855 202.02 102.011 202.42C102.166 202.821 102.244 203.315 102.244 203.901V204.31H97.4001V203.476H101.262C101.262 203.121 101.191 202.805 101.049 202.527C100.91 202.249 100.711 202.029 100.452 201.868C100.196 201.707 99.8928 201.627 99.5438 201.627C99.1592 201.627 98.8265 201.722 98.5456 201.913C98.2674 202.101 98.0533 202.347 97.9033 202.65C97.7533 202.952 97.6783 203.277 97.6783 203.623V204.18C97.6783 204.654 97.7601 205.056 97.9238 205.386C98.0901 205.714 98.3206 205.963 98.6151 206.135C98.9097 206.304 99.2519 206.389 99.6419 206.389C99.8956 206.389 100.125 206.353 100.329 206.282C100.536 206.209 100.715 206.1 100.865 205.955C101.015 205.808 101.131 205.625 101.213 205.407L102.146 205.669C102.047 205.985 101.882 206.263 101.651 206.503C101.419 206.74 101.132 206.926 100.791 207.06C100.451 207.19 100.067 207.256 99.6419 207.256ZM103.712 207.125V200.841H104.645V201.79H104.711C104.825 201.48 105.032 201.227 105.332 201.034C105.632 200.84 105.971 200.743 106.347 200.743C106.418 200.743 106.506 200.745 106.613 200.747C106.719 200.75 106.8 200.754 106.854 200.76V201.741C106.821 201.733 106.746 201.721 106.629 201.705C106.515 201.685 106.393 201.676 106.265 201.676C105.96 201.676 105.687 201.74 105.447 201.868C105.21 201.994 105.021 202.168 104.882 202.392C104.746 202.613 104.678 202.865 104.678 203.149V207.125H103.712Z" fill="#EDF738"/>
<g clip-path="url(#clip0_4_4085)">
<path d="M364.053 95.3077C400.254 95.3077 429.589 143.462 429.589 202.888C429.589 262.314 400.254 310.469 364.053 310.469" stroke="#EDF738" stroke-opacity="0.4" stroke-width="0.918685"/>
<path d="M618.198 235.335C592.358 243.789 559.539 248.977 525.397 248.977C438.016 248.977 367.111 216.352 367.111 176.087C367.111 135.823 438.016 103.198 525.397 103.198C563.721 103.198 590.798 106.612 618.198 117.07" stroke="#EDF738" stroke-opacity="0.4" stroke-width="0.918685"/>
<path d="M618.198 289.044C590.797 299.563 564.031 302.514 525.583 302.514C438.201 302.514 367.297 269.827 367.297 229.625C367.297 189.422 438.201 156.673 525.583 156.673C559.724 156.673 592.243 161.494 618.083 169.948" stroke="#EDF738" stroke-opacity="0.4" stroke-width="0.918685"/>
<path d="M870.867 310.469C834.667 310.469 805.331 262.314 805.331 202.888C805.331 143.462 834.667 95.3077 870.867 95.3077" stroke="#EDF738" stroke-opacity="0.4" stroke-width="0.918685"/>
<path d="M617.896 170.264C643.737 161.81 675.381 156.8 709.523 156.8C796.905 156.8 867.809 189.425 867.809 229.69C867.809 269.954 796.967 302.579 709.523 302.579C671.2 302.579 645.599 299.501 618.198 289.044" stroke="#EDF738" stroke-opacity="0.4" stroke-width="0.918685"/>
<path d="M618.198 117.07C645.598 106.55 671.013 103.01 709.46 103.01C796.842 103.01 867.746 135.635 867.746 175.899C867.746 216.163 796.904 248.789 709.46 248.789C675.319 248.789 644.038 243.789 618.198 235.335" stroke="#EDF738" stroke-opacity="0.4" stroke-width="0.918685"/>
<path d="M620.581 311.283C700.416 311.283 765.136 262.754 765.136 202.888C765.136 143.024 700.416 94.4935 620.581 94.4935C540.746 94.4935 476.026 143.024 476.026 202.888C476.026 262.754 540.746 311.283 620.581 311.283Z" stroke="#EDF738" stroke-opacity="0.4" stroke-width="0.918685"/>
<path d="M618.209 94.4935V311.283" stroke="#EDF738" stroke-opacity="0.4" stroke-width="0.918685"/>
</g>
<g clip-path="url(#clip1_4_4085)">
<path d="M628.539 13.5356C629.103 13.7141 629.425 14.0157 629.499 14.4457C629.574 14.8756 629.414 15.3341 629.026 15.8157C628.609 16.3244 628.107 16.6645 627.536 16.8306C625.337 17.4358 622.815 17.5002 619.971 17.0126C621.996 15.3968 624.234 14.2527 626.691 13.5639C627.357 13.3718 627.97 13.3623 628.539 13.5356ZM620.883 7.14493C621.38 6.77694 621.883 6.65387 622.393 6.77582C622.791 6.89536 623.09 7.2409 623.306 7.81847C623.482 8.42301 623.481 9.01281 623.291 9.57632C622.719 11.4004 621.316 13.5745 619.094 16.0987C618.768 13.5771 618.992 11.117 619.759 8.72391C619.979 8.06641 620.357 7.54013 620.883 7.14493ZM626.491 23.9916C626.529 24.5654 626.375 25.0185 626.017 25.3615C625.694 25.6719 625.23 25.7791 624.631 25.6888C624.059 25.6268 623.58 25.3887 623.193 24.9857C621.723 23.4529 620.544 21.2808 619.663 18.4639C621.982 19.2911 624.035 20.6245 625.81 22.4752C626.224 22.9067 626.459 23.4123 626.491 23.9805M610.534 11.1525C610.499 10.4675 610.688 9.92616 611.102 9.52863C611.454 9.191 611.991 9.0686 612.701 9.16133C613.383 9.2812 613.95 9.57674 614.391 10.0366C615.72 11.4218 616.843 13.5704 617.757 16.4659C614.725 15.3736 612.602 14.1944 611.382 12.9228C610.881 12.4005 610.604 11.816 610.534 11.1525ZM616.932 27.5037C616.462 27.9001 615.997 28.0407 615.543 27.92C615.145 27.8004 614.857 27.4662 614.674 26.9227C614.492 26.3236 614.493 25.7338 614.688 25.1648C615.515 22.5949 616.711 20.4778 618.281 18.808C618.709 21.5041 618.605 23.8498 617.973 25.8507C617.753 26.5639 617.402 27.1185 616.932 27.5149M608.918 21.4562C608.384 21.1948 608.064 20.8042 607.969 20.2848C607.866 19.8821 608.026 19.4237 608.442 18.9149C608.858 18.4618 609.354 18.1494 609.93 17.9889C612.13 17.3837 614.618 17.3186 617.406 17.805C614.996 19.7244 612.728 20.9958 610.59 21.5967C610.008 21.7626 609.452 21.7177 608.918 21.4562Z" fill="#EDF738"/>
</g>
<path d="M700.028 298.339C700.028 297.266 700.168 296.278 700.446 295.378C700.727 294.474 701.128 293.643 701.648 292.885H702.534C702.33 293.166 702.138 293.513 701.959 293.925C701.783 294.334 701.628 294.784 701.494 295.276C701.361 295.764 701.256 296.27 701.179 296.793C701.105 297.315 701.068 297.831 701.068 298.339C701.068 299.016 701.134 299.702 701.264 300.398C701.395 301.094 701.571 301.74 701.793 302.337C702.014 302.933 702.261 303.419 702.534 303.794H701.648C701.128 303.036 700.727 302.206 700.446 301.305C700.168 300.402 700.028 299.413 700.028 298.339ZM705.154 302.703V293.976H706.211V297.862H710.865V293.976H711.922V302.703H710.865V298.8H706.211V302.703H705.154ZM719.412 293.976H720.674L723.64 301.22H723.742L726.708 293.976H727.969V302.703H726.98V296.072H726.895L724.168 302.703H723.213L720.486 296.072H720.401V302.703H719.412V293.976ZM736.815 293.976H737.872V299.754C737.872 300.351 737.732 300.884 737.45 301.352C737.172 301.818 736.778 302.186 736.27 302.456C735.761 302.723 735.165 302.857 734.48 302.857C733.795 302.857 733.199 302.723 732.69 302.456C732.182 302.186 731.787 301.818 731.506 301.352C731.227 300.884 731.088 300.351 731.088 299.754V293.976H732.145V299.669C732.145 300.095 732.239 300.474 732.426 300.807C732.614 301.136 732.881 301.396 733.227 301.587C733.577 301.774 733.994 301.868 734.48 301.868C734.966 301.868 735.384 301.774 735.733 301.587C736.082 301.396 736.349 301.136 736.534 300.807C736.722 300.474 736.815 300.095 736.815 299.669V293.976ZM740.983 302.703V293.976H746.25V294.913H742.039V297.862H745.977V298.8H742.039V301.766H746.318V302.703H740.983ZM748.677 294.913V293.976H755.223V294.913H752.478V302.703H751.422V294.913H748.677ZM759.865 298.339C759.865 299.413 759.724 300.402 759.443 301.305C759.165 302.206 758.766 303.036 758.246 303.794H757.359C757.564 303.513 757.754 303.166 757.93 302.754C758.109 302.345 758.266 301.896 758.399 301.408C758.533 300.916 758.636 300.409 758.71 299.886C758.787 299.361 758.825 298.845 758.825 298.339C758.825 297.663 758.76 296.977 758.629 296.281C758.499 295.585 758.322 294.939 758.101 294.342C757.879 293.746 757.632 293.26 757.359 292.885H758.246C758.766 293.643 759.165 294.474 759.443 295.378C759.724 296.278 759.865 297.266 759.865 298.339ZM769.605 304.016L766.792 293.567H767.713L770.525 304.016H769.605ZM773.911 293.976V302.703H772.854V293.976H773.911ZM777.029 302.703V293.976H779.978C780.663 293.976 781.223 294.099 781.657 294.347C782.095 294.591 782.419 294.922 782.629 295.339C782.839 295.757 782.944 296.223 782.944 296.737C782.944 297.251 782.839 297.719 782.629 298.139C782.422 298.56 782.1 298.895 781.666 299.145C781.231 299.392 780.674 299.516 779.995 299.516H777.882V298.578H779.961C780.43 298.578 780.806 298.497 781.091 298.335C781.375 298.173 781.581 297.955 781.708 297.679C781.839 297.401 781.904 297.087 781.904 296.737C781.904 296.388 781.839 296.075 781.708 295.8C781.581 295.524 781.373 295.308 781.086 295.152C780.799 294.993 780.419 294.913 779.944 294.913H778.086V302.703H777.029ZM789.328 298.527H788.34C787.772 298.527 787.267 298.437 786.827 298.259C786.39 298.077 786.046 297.817 785.796 297.479C785.549 297.138 785.425 296.729 785.425 296.251C785.425 295.751 785.557 295.322 785.821 294.964C786.086 294.607 786.442 294.332 786.891 294.142C787.34 293.952 787.843 293.857 788.4 293.857C788.973 293.857 789.48 293.952 789.921 294.142C790.364 294.332 790.711 294.604 790.961 294.956C791.213 295.308 791.34 295.726 791.34 296.209H790.13C790.13 295.808 789.978 295.482 789.674 295.229C789.37 294.973 788.945 294.845 788.4 294.845C788.013 294.845 787.689 294.906 787.428 295.028C787.167 295.151 786.969 295.321 786.836 295.54C786.702 295.756 786.635 296.007 786.635 296.294C786.635 296.547 786.692 296.787 786.806 297.014C786.922 297.239 787.107 297.422 787.36 297.564C787.615 297.706 787.953 297.777 788.374 297.777H789.328V298.527ZM788.34 298.016H789.328V298.749H788.374C787.965 298.749 787.623 298.805 787.347 298.919C787.071 299.033 786.864 299.205 786.725 299.435C786.586 299.665 786.516 299.953 786.516 300.3C786.516 300.669 786.597 300.967 786.759 301.195C786.924 301.422 787.144 301.588 787.419 301.693C787.698 301.798 788.007 301.851 788.348 301.851C788.988 301.851 789.463 301.703 789.776 301.408C790.091 301.109 790.249 300.751 790.249 300.334H791.459C791.459 300.913 791.314 301.386 791.025 301.753C790.735 302.119 790.354 302.389 789.882 302.562C789.411 302.736 788.902 302.822 788.357 302.822C787.817 302.822 787.314 302.739 786.848 302.571C786.382 302.403 786.006 302.141 785.719 301.783C785.432 301.425 785.289 300.959 785.289 300.385C785.289 299.592 785.559 299 786.098 298.608C786.638 298.213 787.385 298.016 788.34 298.016ZM797.831 299.413H796.569L798.427 296.362H799.689L797.831 299.413ZM796.893 302.703H794.2V296.362H795.376V301.783H796.893C797.336 301.783 797.657 301.673 797.856 301.455C798.055 301.236 798.154 300.999 798.154 300.743C798.154 300.504 798.064 300.28 797.882 300.07C797.703 299.859 797.413 299.754 797.012 299.754H795.069V298.817H797.012C797.501 298.817 797.917 298.901 798.261 299.068C798.608 299.236 798.872 299.466 799.054 299.759C799.238 300.051 799.331 300.385 799.331 300.76C799.331 301.129 799.235 301.46 799.045 301.753C798.855 302.045 798.578 302.277 798.214 302.447C797.85 302.618 797.41 302.703 796.893 302.703ZM802.787 302.703V293.976H808.054V294.913H803.844V297.862H807.782V298.8H803.844V301.766H808.123V302.703H802.787ZM811.317 302.703H810.209L813.414 293.976H814.505L817.709 302.703H816.601L813.993 295.357H813.925L811.317 302.703ZM811.726 299.294H816.192V300.232H811.726V299.294ZM820.069 302.703V293.976H821.125V301.766H825.182V302.703H820.069ZM828.875 293.976V302.703H827.819V293.976H828.875ZM836.767 296.158C836.716 295.726 836.509 295.391 836.145 295.152C835.781 294.913 835.335 294.794 834.807 294.794C834.42 294.794 834.082 294.857 833.793 294.982C833.506 295.107 833.281 295.278 833.119 295.497C832.96 295.716 832.881 295.964 832.881 296.243C832.881 296.476 832.936 296.676 833.047 296.844C833.161 297.009 833.305 297.146 833.482 297.257C833.658 297.365 833.842 297.455 834.036 297.526C834.229 297.594 834.406 297.649 834.568 297.692L835.455 297.93C835.682 297.99 835.935 298.072 836.213 298.178C836.494 298.283 836.763 298.426 837.018 298.608C837.277 298.787 837.49 299.017 837.658 299.298C837.825 299.58 837.909 299.925 837.909 300.334C837.909 300.805 837.786 301.232 837.538 301.612C837.294 301.993 836.936 302.295 836.464 302.52C835.996 302.744 835.426 302.857 834.756 302.857C834.131 302.857 833.589 302.756 833.132 302.554C832.678 302.352 832.32 302.071 832.058 301.71C831.8 301.349 831.653 300.93 831.619 300.453H832.71C832.739 300.783 832.849 301.055 833.043 301.271C833.239 301.484 833.486 301.643 833.784 301.749C834.085 301.851 834.409 301.902 834.756 301.902C835.159 301.902 835.521 301.837 835.842 301.706C836.163 301.572 836.418 301.388 836.605 301.152C836.793 300.913 836.886 300.635 836.886 300.317C836.886 300.027 836.805 299.791 836.643 299.609C836.482 299.428 836.268 299.28 836.004 299.166C835.74 299.053 835.455 298.953 835.148 298.868L834.074 298.561C833.392 298.365 832.852 298.085 832.455 297.722C832.057 297.358 831.858 296.882 831.858 296.294C831.858 295.805 831.99 295.379 832.254 295.016C832.521 294.649 832.879 294.365 833.328 294.163C833.78 293.959 834.284 293.857 834.841 293.857C835.403 293.857 835.903 293.957 836.341 294.159C836.778 294.358 837.125 294.631 837.381 294.977C837.639 295.324 837.776 295.717 837.79 296.158H836.767ZM840.169 294.913V293.976H846.715V294.913H843.971V302.703H842.914V294.913H840.169ZM851.374 304.016L848.562 293.567H849.482L852.295 304.016H851.374Z" fill="#EDF738"/>
<path d="M700.844 343.25H699.204L703.947 330.334H705.561L710.304 343.25H708.664L704.805 332.377H704.704L700.844 343.25ZM701.449 338.205H708.059V339.592H701.449V338.205ZM716.024 347.085C715.305 347.085 714.687 346.992 714.17 346.807C713.653 346.626 713.222 346.387 712.877 346.088C712.537 345.794 712.266 345.478 712.064 345.142L713.249 344.31C713.384 344.486 713.554 344.688 713.76 344.915C713.966 345.146 714.248 345.346 714.605 345.514C714.967 345.687 715.44 345.773 716.024 345.773C716.806 345.773 717.452 345.584 717.961 345.205C718.469 344.827 718.724 344.234 718.724 343.427V341.459H718.598C718.488 341.635 718.333 341.854 718.131 342.115C717.933 342.371 717.647 342.6 717.273 342.802C716.903 343 716.403 343.099 715.772 343.099C714.99 343.099 714.288 342.914 713.666 342.544C713.048 342.174 712.558 341.635 712.196 340.929C711.839 340.223 711.66 339.365 711.66 338.356C711.66 337.364 711.835 336.5 712.184 335.764C712.533 335.024 713.018 334.452 713.64 334.048C714.263 333.641 714.982 333.437 715.797 333.437C716.428 333.437 716.928 333.542 717.298 333.752C717.673 333.958 717.958 334.193 718.156 334.458C718.358 334.719 718.513 334.933 718.623 335.102H718.774V333.563H720.212V343.528C720.212 344.36 720.023 345.037 719.644 345.558C719.27 346.084 718.766 346.469 718.131 346.712C717.5 346.961 716.798 347.085 716.024 347.085ZM715.974 341.762C716.571 341.762 717.076 341.625 717.488 341.352C717.9 341.078 718.213 340.685 718.427 340.172C718.642 339.659 718.749 339.045 718.749 338.331C718.749 337.633 718.644 337.017 718.434 336.483C718.223 335.949 717.912 335.53 717.5 335.228C717.088 334.925 716.579 334.774 715.974 334.774C715.343 334.774 714.818 334.933 714.397 335.253C713.981 335.572 713.668 336.001 713.457 336.54C713.251 337.078 713.148 337.675 713.148 338.331C713.148 339.003 713.254 339.598 713.464 340.116C713.678 340.628 713.994 341.032 714.41 341.326C714.83 341.617 715.352 341.762 715.974 341.762ZM726.998 343.452C726.065 343.452 725.26 343.246 724.583 342.834C723.91 342.417 723.391 341.837 723.025 341.093C722.663 340.345 722.483 339.474 722.483 338.482C722.483 337.49 722.663 336.615 723.025 335.858C723.391 335.097 723.899 334.505 724.551 334.08C725.207 333.651 725.972 333.437 726.847 333.437C727.351 333.437 727.85 333.521 728.342 333.689C728.834 333.857 729.281 334.13 729.685 334.509C730.089 334.883 730.41 335.379 730.65 335.997C730.89 336.615 731.009 337.376 731.009 338.28V338.911H723.542V337.624H729.496C729.496 337.078 729.386 336.59 729.168 336.161C728.953 335.732 728.646 335.394 728.247 335.146C727.852 334.898 727.385 334.774 726.847 334.774C726.254 334.774 725.741 334.921 725.308 335.215C724.879 335.505 724.549 335.884 724.318 336.35C724.087 336.817 723.971 337.317 723.971 337.851V338.709C723.971 339.441 724.097 340.061 724.349 340.57C724.606 341.074 724.961 341.459 725.415 341.724C725.869 341.984 726.397 342.115 726.998 342.115C727.389 342.115 727.742 342.06 728.058 341.951C728.377 341.837 728.653 341.669 728.884 341.446C729.115 341.219 729.294 340.937 729.42 340.601L730.858 341.005C730.707 341.492 730.452 341.921 730.095 342.291C729.738 342.657 729.296 342.943 728.77 343.149C728.245 343.351 727.654 343.452 726.998 343.452ZM734.762 337.422V343.25H733.274V333.563H734.711V335.076H734.838C735.065 334.584 735.409 334.189 735.872 333.891C736.334 333.588 736.931 333.437 737.663 333.437C738.319 333.437 738.893 333.571 739.385 333.84C739.877 334.105 740.259 334.509 740.533 335.051C740.806 335.589 740.943 336.27 740.943 337.095V343.25H739.454V337.195C739.454 336.434 739.257 335.842 738.861 335.417C738.466 334.988 737.924 334.774 737.234 334.774C736.759 334.774 736.334 334.877 735.96 335.083C735.59 335.289 735.298 335.589 735.084 335.985C734.869 336.38 734.762 336.859 734.762 337.422ZM747.598 343.452C746.69 343.452 745.908 343.237 745.252 342.809C744.596 342.38 744.091 341.789 743.738 341.036C743.385 340.284 743.208 339.424 743.208 338.457C743.208 337.473 743.389 336.605 743.751 335.852C744.117 335.095 744.625 334.505 745.277 334.08C745.933 333.651 746.698 333.437 747.573 333.437C748.254 333.437 748.868 333.563 749.414 333.815C749.961 334.067 750.409 334.42 750.758 334.875C751.107 335.329 751.323 335.858 751.407 336.464H749.919C749.805 336.022 749.553 335.631 749.162 335.291C748.775 334.946 748.254 334.774 747.598 334.774C747.018 334.774 746.509 334.925 746.072 335.228C745.639 335.526 745.3 335.949 745.056 336.495C744.817 337.038 744.697 337.675 744.697 338.406C744.697 339.155 744.814 339.806 745.05 340.361C745.29 340.916 745.626 341.347 746.059 341.654C746.496 341.961 747.009 342.115 747.598 342.115C747.985 342.115 748.336 342.047 748.651 341.913C748.966 341.778 749.233 341.585 749.452 341.333C749.671 341.08 749.826 340.778 749.919 340.425H751.407C751.323 340.996 751.115 341.511 750.783 341.97C750.455 342.424 750.02 342.785 749.477 343.054C748.939 343.319 748.313 343.452 747.598 343.452ZM757.645 343.452C756.711 343.452 755.906 343.246 755.229 342.834C754.556 342.417 754.037 341.837 753.671 341.093C753.31 340.345 753.129 339.474 753.129 338.482C753.129 337.49 753.31 336.615 753.671 335.858C754.037 335.097 754.546 334.505 755.198 334.08C755.854 333.651 756.619 333.437 757.493 333.437C757.998 333.437 758.496 333.521 758.988 333.689C759.48 333.857 759.928 334.13 760.331 334.509C760.735 334.883 761.057 335.379 761.296 335.997C761.536 336.615 761.656 337.376 761.656 338.28V338.911H754.189V337.624H760.142C760.142 337.078 760.033 336.59 759.814 336.161C759.6 335.732 759.293 335.394 758.893 335.146C758.498 334.898 758.031 334.774 757.493 334.774C756.9 334.774 756.387 334.921 755.954 335.215C755.526 335.505 755.195 335.884 754.964 336.35C754.733 336.817 754.617 337.317 754.617 337.851V338.709C754.617 339.441 754.744 340.061 754.996 340.57C755.252 341.074 755.608 341.459 756.062 341.724C756.516 341.984 757.043 342.115 757.645 342.115C758.036 342.115 758.389 342.06 758.704 341.951C759.024 341.837 759.299 341.669 759.53 341.446C759.762 341.219 759.94 340.937 760.066 340.601L761.504 341.005C761.353 341.492 761.099 341.921 760.741 342.291C760.384 342.657 759.942 342.943 759.417 343.149C758.891 343.351 758.301 343.452 757.645 343.452ZM775.777 335.732L774.44 336.111C774.356 335.888 774.232 335.671 774.068 335.461C773.908 335.247 773.689 335.07 773.412 334.931C773.134 334.793 772.779 334.723 772.346 334.723C771.753 334.723 771.259 334.86 770.864 335.133C770.473 335.402 770.277 335.745 770.277 336.161C770.277 336.531 770.412 336.823 770.681 337.038C770.95 337.252 771.37 337.431 771.942 337.574L773.38 337.927C774.246 338.137 774.892 338.459 775.316 338.892C775.741 339.321 775.953 339.874 775.953 340.551C775.953 341.106 775.794 341.602 775.474 342.039C775.159 342.476 774.717 342.821 774.15 343.073C773.582 343.326 772.922 343.452 772.169 343.452C771.181 343.452 770.363 343.237 769.716 342.809C769.068 342.38 768.658 341.753 768.486 340.929L769.899 340.576C770.033 341.097 770.288 341.488 770.662 341.749C771.04 342.01 771.534 342.14 772.144 342.14C772.838 342.14 773.389 341.993 773.796 341.699C774.208 341.4 774.414 341.043 774.414 340.626C774.414 340.29 774.297 340.008 774.061 339.781C773.826 339.55 773.464 339.378 772.977 339.264L771.362 338.886C770.475 338.675 769.823 338.35 769.407 337.908C768.995 337.462 768.789 336.905 768.789 336.237C768.789 335.69 768.942 335.207 769.249 334.786C769.56 334.366 769.983 334.036 770.517 333.796C771.055 333.556 771.665 333.437 772.346 333.437C773.304 333.437 774.057 333.647 774.604 334.067C775.154 334.488 775.545 335.043 775.777 335.732ZM778.194 346.883V333.563H779.632V335.102H779.808C779.918 334.933 780.069 334.719 780.262 334.458C780.46 334.193 780.742 333.958 781.108 333.752C781.478 333.542 781.978 333.437 782.609 333.437C783.424 333.437 784.143 333.641 784.766 334.048C785.388 334.456 785.873 335.034 786.222 335.783C786.571 336.531 786.746 337.414 786.746 338.432C786.746 339.457 786.571 340.347 786.222 341.099C785.873 341.848 785.39 342.428 784.772 342.84C784.154 343.248 783.441 343.452 782.634 343.452C782.012 343.452 781.513 343.349 781.139 343.143C780.765 342.933 780.477 342.695 780.275 342.43C780.073 342.161 779.918 341.938 779.808 341.762H779.682V346.883H778.194ZM779.657 338.406C779.657 339.138 779.764 339.783 779.979 340.343C780.193 340.898 780.506 341.333 780.918 341.648C781.33 341.959 781.835 342.115 782.432 342.115C783.054 342.115 783.574 341.951 783.99 341.623C784.41 341.291 784.726 340.845 784.936 340.286C785.15 339.722 785.257 339.096 785.257 338.406C785.257 337.725 785.152 337.111 784.942 336.565C784.736 336.014 784.423 335.579 784.002 335.259C783.586 334.936 783.063 334.774 782.432 334.774C781.827 334.774 781.318 334.927 780.906 335.234C780.494 335.537 780.183 335.961 779.972 336.508C779.762 337.05 779.657 337.683 779.657 338.406ZM793.078 343.452C792.145 343.452 791.339 343.246 790.662 342.834C789.99 342.417 789.47 341.837 789.105 341.093C788.743 340.345 788.562 339.474 788.562 338.482C788.562 337.49 788.743 336.615 789.105 335.858C789.47 335.097 789.979 334.505 790.631 334.08C791.287 333.651 792.052 333.437 792.927 333.437C793.431 333.437 793.929 333.521 794.421 333.689C794.913 333.857 795.361 334.13 795.765 334.509C796.168 334.883 796.49 335.379 796.73 335.997C796.969 336.615 797.089 337.376 797.089 338.28V338.911H789.622V337.624H795.575C795.575 337.078 795.466 336.59 795.247 336.161C795.033 335.732 794.726 335.394 794.327 335.146C793.931 334.898 793.465 334.774 792.927 334.774C792.334 334.774 791.821 334.921 791.388 335.215C790.959 335.505 790.629 335.884 790.398 336.35C790.166 336.817 790.051 337.317 790.051 337.851V338.709C790.051 339.441 790.177 340.061 790.429 340.57C790.686 341.074 791.041 341.459 791.495 341.724C791.949 341.984 792.477 342.115 793.078 342.115C793.469 342.115 793.822 342.06 794.137 341.951C794.457 341.837 794.732 341.669 794.964 341.446C795.195 341.219 795.374 340.937 795.5 340.601L796.938 341.005C796.786 341.492 796.532 341.921 796.175 342.291C795.817 342.657 795.376 342.943 794.85 343.149C794.325 343.351 793.734 343.452 793.078 343.452ZM792.17 332.251L793.709 329.325H795.449L793.482 332.251H792.17ZM803.289 343.452C802.38 343.452 801.598 343.237 800.943 342.809C800.287 342.38 799.782 341.789 799.429 341.036C799.076 340.284 798.899 339.424 798.899 338.457C798.899 337.473 799.08 336.605 799.442 335.852C799.807 335.095 800.316 334.505 800.968 334.08C801.624 333.651 802.389 333.437 803.263 333.437C803.945 333.437 804.558 333.563 805.105 333.815C805.652 334.067 806.099 334.42 806.448 334.875C806.797 335.329 807.014 335.858 807.098 336.464H805.61C805.496 336.022 805.244 335.631 804.853 335.291C804.466 334.946 803.945 334.774 803.289 334.774C802.708 334.774 802.2 334.925 801.762 335.228C801.329 335.526 800.991 335.949 800.747 336.495C800.507 337.038 800.388 337.675 800.388 338.406C800.388 339.155 800.505 339.806 800.741 340.361C800.98 340.916 801.317 341.347 801.75 341.654C802.187 341.961 802.7 342.115 803.289 342.115C803.675 342.115 804.027 342.047 804.342 341.913C804.657 341.778 804.924 341.585 805.143 341.333C805.362 341.08 805.517 340.778 805.61 340.425H807.098C807.014 340.996 806.806 341.511 806.474 341.97C806.146 342.424 805.71 342.785 805.168 343.054C804.63 343.319 804.003 343.452 803.289 343.452ZM809.274 343.25V333.563H810.762V343.25H809.274ZM810.031 331.948C809.741 331.948 809.49 331.849 809.28 331.652C809.074 331.454 808.971 331.217 808.971 330.939C808.971 330.662 809.074 330.424 809.28 330.226C809.49 330.029 809.741 329.93 810.031 329.93C810.321 329.93 810.569 330.029 810.775 330.226C810.985 330.424 811.09 330.662 811.09 330.939C811.09 331.217 810.985 331.454 810.775 331.652C810.569 331.849 810.321 331.948 810.031 331.948ZM816.339 343.477C815.725 343.477 815.168 343.361 814.668 343.13C814.167 342.895 813.77 342.556 813.476 342.115C813.181 341.669 813.034 341.131 813.034 340.5C813.034 339.945 813.144 339.495 813.362 339.151C813.581 338.802 813.873 338.528 814.239 338.331C814.605 338.133 815.008 337.986 815.45 337.889C815.895 337.788 816.343 337.708 816.793 337.65C817.382 337.574 817.859 337.517 818.225 337.479C818.595 337.437 818.864 337.368 819.032 337.271C819.204 337.174 819.291 337.006 819.291 336.767V336.716C819.291 336.094 819.12 335.61 818.78 335.266C818.443 334.921 817.933 334.748 817.247 334.748C816.537 334.748 815.98 334.904 815.576 335.215C815.172 335.526 814.888 335.858 814.725 336.212L813.312 335.707C813.564 335.118 813.9 334.66 814.321 334.332C814.746 334 815.208 333.769 815.708 333.638C816.213 333.504 816.709 333.437 817.197 333.437C817.508 333.437 817.865 333.474 818.269 333.55C818.677 333.622 819.07 333.771 819.448 333.998C819.831 334.225 820.148 334.568 820.401 335.026C820.653 335.484 820.779 336.098 820.779 336.867V343.25H819.291V341.938H819.215C819.114 342.148 818.946 342.373 818.71 342.613C818.475 342.853 818.162 343.057 817.771 343.225C817.38 343.393 816.902 343.477 816.339 343.477ZM816.566 342.14C817.155 342.14 817.651 342.024 818.055 341.793C818.462 341.562 818.769 341.263 818.975 340.898C819.186 340.532 819.291 340.147 819.291 339.743V338.381C819.228 338.457 819.089 338.526 818.874 338.589C818.664 338.648 818.42 338.701 818.143 338.747C817.87 338.789 817.603 338.827 817.342 338.86C817.085 338.89 816.877 338.915 816.717 338.936C816.331 338.987 815.969 339.069 815.633 339.182C815.301 339.291 815.031 339.457 814.825 339.68C814.624 339.899 814.523 340.197 814.523 340.576C814.523 341.093 814.714 341.484 815.097 341.749C815.483 342.01 815.973 342.14 816.566 342.14ZM824.984 330.334V343.25H823.496V330.334H824.984ZM827.71 343.25V333.563H829.199V343.25H827.71ZM828.467 331.948C828.177 331.948 827.927 331.849 827.717 331.652C827.511 331.454 827.408 331.217 827.408 330.939C827.408 330.662 827.511 330.424 827.717 330.226C827.927 330.029 828.177 329.93 828.467 329.93C828.757 329.93 829.005 330.029 829.211 330.226C829.421 330.424 829.527 330.662 829.527 330.939C829.527 331.217 829.421 331.454 829.211 331.652C829.005 331.849 828.757 331.948 828.467 331.948ZM838.787 335.732L837.45 336.111C837.365 335.888 837.241 335.671 837.077 335.461C836.918 335.247 836.699 335.07 836.422 334.931C836.144 334.793 835.789 334.723 835.356 334.723C834.763 334.723 834.269 334.86 833.874 335.133C833.483 335.402 833.287 335.745 833.287 336.161C833.287 336.531 833.422 336.823 833.691 337.038C833.96 337.252 834.38 337.431 834.952 337.574L836.39 337.927C837.256 338.137 837.902 338.459 838.326 338.892C838.751 339.321 838.963 339.874 838.963 340.551C838.963 341.106 838.803 341.602 838.484 342.039C838.169 342.476 837.727 342.821 837.159 343.073C836.592 343.326 835.932 343.452 835.179 343.452C834.191 343.452 833.373 343.237 832.726 342.809C832.078 342.38 831.668 341.753 831.496 340.929L832.909 340.576C833.043 341.097 833.298 341.488 833.672 341.749C834.05 342.01 834.544 342.14 835.154 342.14C835.848 342.14 836.398 341.993 836.806 341.699C837.218 341.4 837.424 341.043 837.424 340.626C837.424 340.29 837.307 340.008 837.071 339.781C836.836 339.55 836.474 339.378 835.986 339.264L834.372 338.886C833.485 338.675 832.833 338.35 832.417 337.908C832.005 337.462 831.799 336.905 831.799 336.237C831.799 335.69 831.952 335.207 832.259 334.786C832.57 334.366 832.993 334.036 833.527 333.796C834.065 333.556 834.675 333.437 835.356 333.437C836.314 333.437 837.067 333.647 837.614 334.067C838.164 334.488 838.555 335.043 838.787 335.732ZM845.265 343.452C844.332 343.452 843.527 343.246 842.85 342.834C842.177 342.417 841.658 341.837 841.292 341.093C840.93 340.345 840.75 339.474 840.75 338.482C840.75 337.49 840.93 336.615 841.292 335.858C841.658 335.097 842.167 334.505 842.818 334.08C843.474 333.651 844.239 333.437 845.114 333.437C845.618 333.437 846.117 333.521 846.609 333.689C847.101 333.857 847.548 334.13 847.952 334.509C848.356 334.883 848.677 335.379 848.917 335.997C849.157 336.615 849.276 337.376 849.276 338.28V338.911H841.809V337.624H847.763C847.763 337.078 847.653 336.59 847.435 336.161C847.22 335.732 846.913 335.394 846.514 335.146C846.119 334.898 845.652 334.774 845.114 334.774C844.521 334.774 844.008 334.921 843.575 335.215C843.146 335.505 842.816 335.884 842.585 336.35C842.354 336.817 842.238 337.317 842.238 337.851V338.709C842.238 339.441 842.364 340.061 842.616 340.57C842.873 341.074 843.228 341.459 843.682 341.724C844.136 341.984 844.664 342.115 845.265 342.115C845.656 342.115 846.009 342.06 846.325 341.951C846.644 341.837 846.92 341.669 847.151 341.446C847.382 341.219 847.561 340.937 847.687 340.601L849.125 341.005C848.974 341.492 848.719 341.921 848.362 342.291C848.005 342.657 847.563 342.943 847.037 343.149C846.512 343.351 845.921 343.452 845.265 343.452ZM844.357 332.251L845.896 329.325H847.637L845.669 332.251H844.357ZM855.602 343.452C854.669 343.452 853.864 343.246 853.187 342.834C852.514 342.417 851.995 341.837 851.629 341.093C851.267 340.345 851.086 339.474 851.086 338.482C851.086 337.49 851.267 336.615 851.629 335.858C851.995 335.097 852.503 334.505 853.155 334.08C853.811 333.651 854.576 333.437 855.451 333.437C855.955 333.437 856.454 333.521 856.945 333.689C857.437 333.857 857.885 334.13 858.289 334.509C858.692 334.883 859.014 335.379 859.254 335.997C859.493 336.615 859.613 337.376 859.613 338.28V338.911H852.146V337.624H858.1C858.1 337.078 857.99 336.59 857.772 336.161C857.557 335.732 857.25 335.394 856.851 335.146C856.456 334.898 855.989 334.774 855.451 334.774C854.858 334.774 854.345 334.921 853.912 335.215C853.483 335.505 853.153 335.884 852.922 336.35C852.69 336.817 852.575 337.317 852.575 337.851V338.709C852.575 339.441 852.701 340.061 852.953 340.57C853.21 341.074 853.565 341.459 854.019 341.724C854.473 341.984 855.001 342.115 855.602 342.115C855.993 342.115 856.346 342.06 856.662 341.951C856.981 341.837 857.257 341.669 857.488 341.446C857.719 341.219 857.898 340.937 858.024 340.601L859.462 341.005C859.311 341.492 859.056 341.921 858.699 342.291C858.341 342.657 857.9 342.943 857.374 343.149C856.849 343.351 856.258 343.452 855.602 343.452ZM704.174 369.452C703.24 369.452 702.435 369.246 701.758 368.834C701.086 368.417 700.566 367.837 700.201 367.093C699.839 366.345 699.658 365.474 699.658 364.482C699.658 363.49 699.839 362.615 700.201 361.858C700.566 361.097 701.075 360.505 701.727 360.08C702.383 359.651 703.148 359.437 704.023 359.437C704.527 359.437 705.025 359.521 705.517 359.689C706.009 359.857 706.457 360.13 706.861 360.509C707.264 360.883 707.586 361.379 707.826 361.997C708.065 362.615 708.185 363.376 708.185 364.28V364.911H700.718V363.624H706.671C706.671 363.078 706.562 362.59 706.343 362.161C706.129 361.732 705.822 361.394 705.423 361.146C705.027 360.898 704.561 360.774 704.023 360.774C703.43 360.774 702.917 360.921 702.484 361.215C702.055 361.505 701.725 361.884 701.493 362.35C701.262 362.817 701.147 363.317 701.147 363.851V364.709C701.147 365.441 701.273 366.061 701.525 366.57C701.781 367.074 702.137 367.459 702.591 367.724C703.045 367.984 703.573 368.115 704.174 368.115C704.565 368.115 704.918 368.06 705.233 367.951C705.553 367.837 705.828 367.669 706.06 367.446C706.291 367.219 706.47 366.937 706.596 366.601L708.034 367.005C707.882 367.492 707.628 367.921 707.271 368.291C706.913 368.657 706.472 368.943 705.946 369.149C705.421 369.351 704.83 369.452 704.174 369.452ZM711.938 363.422V369.25H710.449V359.563H711.887V361.076H712.013C712.24 360.584 712.585 360.189 713.048 359.891C713.51 359.588 714.107 359.437 714.839 359.437C715.495 359.437 716.069 359.571 716.56 359.84C717.052 360.105 717.435 360.509 717.708 361.051C717.982 361.589 718.118 362.27 718.118 363.095V369.25H716.63V363.195C716.63 362.434 716.432 361.842 716.037 361.417C715.642 360.988 715.099 360.774 714.41 360.774C713.935 360.774 713.51 360.877 713.136 361.083C712.766 361.289 712.474 361.589 712.259 361.985C712.045 362.38 711.938 362.859 711.938 363.422ZM732.695 361.732L731.358 362.111C731.274 361.888 731.15 361.671 730.986 361.461C730.826 361.247 730.607 361.07 730.33 360.931C730.052 360.793 729.697 360.723 729.264 360.723C728.671 360.723 728.177 360.86 727.782 361.133C727.391 361.402 727.195 361.745 727.195 362.161C727.195 362.531 727.33 362.823 727.599 363.038C727.868 363.252 728.289 363.431 728.86 363.574L730.298 363.927C731.164 364.137 731.81 364.459 732.234 364.892C732.659 365.321 732.871 365.874 732.871 366.551C732.871 367.106 732.712 367.602 732.392 368.039C732.077 368.476 731.635 368.821 731.068 369.073C730.5 369.326 729.84 369.452 729.087 369.452C728.099 369.452 727.282 369.237 726.634 368.809C725.987 368.38 725.577 367.753 725.404 366.929L726.817 366.576C726.951 367.097 727.206 367.488 727.58 367.749C727.958 368.01 728.452 368.14 729.062 368.14C729.756 368.14 730.307 367.993 730.715 367.699C731.127 367.4 731.333 367.043 731.333 366.626C731.333 366.29 731.215 366.008 730.979 365.781C730.744 365.55 730.382 365.378 729.895 365.264L728.28 364.886C727.393 364.675 726.741 364.35 726.325 363.908C725.913 363.462 725.707 362.905 725.707 362.237C725.707 361.69 725.86 361.207 726.167 360.786C726.478 360.366 726.901 360.036 727.435 359.796C727.973 359.556 728.583 359.437 729.264 359.437C730.223 359.437 730.975 359.647 731.522 360.067C732.073 360.488 732.464 361.043 732.695 361.732ZM739.325 359.563V360.824H734.305V359.563H739.325ZM735.768 357.242H737.256V366.475C737.256 366.895 737.317 367.211 737.439 367.421C737.565 367.627 737.725 367.766 737.918 367.837C738.116 367.905 738.324 367.938 738.543 367.938C738.707 367.938 738.841 367.93 738.947 367.913C739.052 367.892 739.136 367.875 739.199 367.862L739.502 369.2C739.401 369.237 739.26 369.275 739.079 369.313C738.898 369.355 738.669 369.376 738.392 369.376C737.971 369.376 737.559 369.286 737.155 369.105C736.756 368.924 736.424 368.649 736.159 368.279C735.898 367.909 735.768 367.442 735.768 366.879V357.242ZM741.564 369.25V359.563H743.002V361.026H743.103C743.279 360.547 743.599 360.158 744.061 359.859C744.524 359.561 745.045 359.411 745.625 359.411C745.735 359.411 745.871 359.413 746.035 359.418C746.199 359.422 746.323 359.428 746.407 359.437V360.95C746.357 360.938 746.241 360.919 746.061 360.893C745.884 360.864 745.697 360.849 745.499 360.849C745.028 360.849 744.608 360.948 744.238 361.146C743.872 361.339 743.582 361.608 743.368 361.953C743.157 362.294 743.052 362.682 743.052 363.12V369.25H741.564ZM751.022 369.477C750.409 369.477 749.852 369.361 749.351 369.13C748.851 368.895 748.454 368.556 748.159 368.115C747.865 367.669 747.718 367.131 747.718 366.5C747.718 365.945 747.827 365.495 748.046 365.151C748.264 364.802 748.557 364.528 748.922 364.331C749.288 364.133 749.692 363.986 750.133 363.889C750.579 363.788 751.027 363.708 751.477 363.65C752.065 363.574 752.542 363.517 752.908 363.479C753.278 363.437 753.547 363.368 753.715 363.271C753.888 363.174 753.974 363.006 753.974 362.767V362.716C753.974 362.094 753.804 361.61 753.463 361.266C753.127 360.921 752.616 360.748 751.931 360.748C751.22 360.748 750.663 360.904 750.259 361.215C749.856 361.526 749.572 361.858 749.408 362.212L747.995 361.707C748.247 361.118 748.584 360.66 749.004 360.332C749.429 360 749.891 359.769 750.392 359.638C750.896 359.504 751.392 359.437 751.88 359.437C752.191 359.437 752.549 359.474 752.952 359.55C753.36 359.622 753.753 359.771 754.132 359.998C754.514 360.225 754.832 360.568 755.084 361.026C755.336 361.484 755.462 362.098 755.462 362.867V369.25H753.974V367.938H753.898C753.797 368.148 753.629 368.373 753.394 368.613C753.158 368.853 752.845 369.057 752.454 369.225C752.063 369.393 751.586 369.477 751.022 369.477ZM751.25 368.14C751.838 368.14 752.334 368.024 752.738 367.793C753.146 367.562 753.453 367.263 753.659 366.898C753.869 366.532 753.974 366.147 753.974 365.743V364.381C753.911 364.457 753.772 364.526 753.558 364.589C753.348 364.648 753.104 364.701 752.826 364.747C752.553 364.789 752.286 364.827 752.025 364.86C751.769 364.89 751.561 364.915 751.401 364.936C751.014 364.987 750.652 365.069 750.316 365.182C749.984 365.291 749.715 365.457 749.509 365.68C749.307 365.899 749.206 366.197 749.206 366.576C749.206 367.093 749.397 367.484 749.78 367.749C750.167 368.01 750.657 368.14 751.25 368.14ZM762.392 359.563V360.824H757.372V359.563H762.392ZM758.835 357.242H760.323V366.475C760.323 366.895 760.384 367.211 760.506 367.421C760.633 367.627 760.792 367.766 760.986 367.837C761.183 367.905 761.391 367.938 761.61 367.938C761.774 367.938 761.909 367.93 762.014 367.913C762.119 367.892 762.203 367.875 762.266 367.862L762.569 369.2C762.468 369.237 762.327 369.275 762.146 369.313C761.965 369.355 761.736 369.376 761.459 369.376C761.038 369.376 760.626 369.286 760.223 369.105C759.823 368.924 759.491 368.649 759.226 368.279C758.965 367.909 758.835 367.442 758.835 366.879V357.242ZM768.589 369.452C767.655 369.452 766.85 369.246 766.173 368.834C765.5 368.417 764.981 367.837 764.615 367.093C764.254 366.345 764.073 365.474 764.073 364.482C764.073 363.49 764.254 362.615 764.615 361.858C764.981 361.097 765.49 360.505 766.142 360.08C766.797 359.651 767.563 359.437 768.437 359.437C768.942 359.437 769.44 359.521 769.932 359.689C770.424 359.857 770.872 360.13 771.275 360.509C771.679 360.883 772.001 361.379 772.24 361.997C772.48 362.615 772.6 363.376 772.6 364.28V364.911H765.132V363.624H771.086C771.086 363.078 770.977 362.59 770.758 362.161C770.544 361.732 770.237 361.394 769.837 361.146C769.442 360.898 768.975 360.774 768.437 360.774C767.844 360.774 767.331 360.921 766.898 361.215C766.469 361.505 766.139 361.884 765.908 362.35C765.677 362.817 765.561 363.317 765.561 363.851V364.709C765.561 365.441 765.687 366.061 765.94 366.57C766.196 367.074 766.551 367.459 767.006 367.724C767.46 367.984 767.987 368.115 768.589 368.115C768.98 368.115 769.333 368.06 769.648 367.951C769.968 367.837 770.243 367.669 770.474 367.446C770.706 367.219 770.884 366.937 771.01 366.601L772.448 367.005C772.297 367.492 772.043 367.921 771.685 368.291C771.328 368.657 770.886 368.943 770.361 369.149C769.835 369.351 769.244 369.452 768.589 369.452ZM767.68 358.251L769.219 355.325H770.96L768.992 358.251H767.68ZM778.774 373.085C778.055 373.085 777.437 372.992 776.92 372.807C776.403 372.626 775.972 372.387 775.627 372.088C775.286 371.794 775.015 371.478 774.813 371.142L775.999 370.31C776.134 370.486 776.304 370.688 776.51 370.915C776.716 371.146 776.998 371.346 777.355 371.514C777.717 371.687 778.19 371.773 778.774 371.773C779.556 371.773 780.202 371.584 780.71 371.205C781.219 370.827 781.473 370.234 781.473 369.427V367.459H781.347C781.238 367.635 781.082 367.854 780.881 368.115C780.683 368.371 780.397 368.6 780.023 368.802C779.653 369 779.152 369.099 778.522 369.099C777.74 369.099 777.038 368.914 776.415 368.544C775.797 368.174 775.307 367.635 774.946 366.929C774.588 366.223 774.41 365.365 774.41 364.356C774.41 363.364 774.584 362.5 774.933 361.764C775.282 361.024 775.768 360.452 776.39 360.048C777.012 359.641 777.731 359.437 778.547 359.437C779.178 359.437 779.678 359.542 780.048 359.752C780.422 359.958 780.708 360.193 780.906 360.458C781.108 360.719 781.263 360.933 781.372 361.102H781.524V359.563H782.962V369.528C782.962 370.36 782.773 371.037 782.394 371.558C782.02 372.084 781.515 372.469 780.881 372.712C780.25 372.961 779.548 373.085 778.774 373.085ZM778.724 367.762C779.321 367.762 779.825 367.625 780.237 367.352C780.649 367.078 780.963 366.685 781.177 366.172C781.391 365.659 781.499 365.045 781.499 364.331C781.499 363.633 781.393 363.017 781.183 362.483C780.973 361.949 780.662 361.53 780.25 361.228C779.838 360.925 779.329 360.774 778.724 360.774C778.093 360.774 777.567 360.933 777.147 361.253C776.731 361.572 776.417 362.001 776.207 362.54C776.001 363.078 775.898 363.675 775.898 364.331C775.898 365.003 776.003 365.598 776.213 366.116C776.428 366.628 776.743 367.032 777.16 367.326C777.58 367.617 778.101 367.762 778.724 367.762ZM785.686 369.25V359.563H787.175V369.25H785.686ZM786.443 357.948C786.153 357.948 785.903 357.849 785.693 357.652C785.487 357.454 785.384 357.217 785.384 356.939C785.384 356.662 785.487 356.424 785.693 356.226C785.903 356.029 786.153 355.93 786.443 355.93C786.733 355.93 786.981 356.029 787.187 356.226C787.398 356.424 787.503 356.662 787.503 356.939C787.503 357.217 787.398 357.454 787.187 357.652C786.981 357.849 786.733 357.948 786.443 357.948ZM793.962 369.452C793.029 369.452 792.224 369.246 791.547 368.834C790.874 368.417 790.355 367.837 789.989 367.093C789.628 366.345 789.447 365.474 789.447 364.482C789.447 363.49 789.628 362.615 789.989 361.858C790.355 361.097 790.864 360.505 791.515 360.08C792.171 359.651 792.937 359.437 793.811 359.437C794.316 359.437 794.814 359.521 795.306 359.689C795.798 359.857 796.246 360.13 796.649 360.509C797.053 360.883 797.374 361.379 797.614 361.997C797.854 362.615 797.974 363.376 797.974 364.28V364.911H790.506V363.624H796.46C796.46 363.078 796.351 362.59 796.132 362.161C795.918 361.732 795.611 361.394 795.211 361.146C794.816 360.898 794.349 360.774 793.811 360.774C793.218 360.774 792.705 360.921 792.272 361.215C791.843 361.505 791.513 361.884 791.282 362.35C791.051 362.817 790.935 363.317 790.935 363.851V364.709C790.935 365.441 791.061 366.061 791.314 366.57C791.57 367.074 791.925 367.459 792.379 367.724C792.834 367.984 793.361 368.115 793.962 368.115C794.353 368.115 794.707 368.06 795.022 367.951C795.342 367.837 795.617 367.669 795.848 367.446C796.079 367.219 796.258 366.937 796.384 366.601L797.822 367.005C797.671 367.492 797.416 367.921 797.059 368.291C796.702 368.657 796.26 368.943 795.735 369.149C795.209 369.351 794.618 369.452 793.962 369.452ZM808.891 369.452C808.083 369.452 807.371 369.248 806.753 368.84C806.135 368.428 805.651 367.848 805.302 367.099C804.953 366.347 804.779 365.457 804.779 364.432C804.779 363.414 804.953 362.531 805.302 361.783C805.651 361.034 806.137 360.456 806.759 360.048C807.381 359.641 808.1 359.437 808.916 359.437C809.547 359.437 810.045 359.542 810.411 359.752C810.781 359.958 811.062 360.193 811.256 360.458C811.453 360.719 811.607 360.933 811.716 361.102H811.842V356.334H813.331V369.25H811.893V367.762H811.716C811.607 367.938 811.451 368.161 811.249 368.43C811.048 368.695 810.76 368.933 810.385 369.143C810.011 369.349 809.513 369.452 808.891 369.452ZM809.093 368.115C809.69 368.115 810.194 367.959 810.606 367.648C811.018 367.333 811.331 366.898 811.546 366.343C811.76 365.783 811.868 365.138 811.868 364.406C811.868 363.683 811.762 363.05 811.552 362.508C811.342 361.961 811.031 361.537 810.619 361.234C810.207 360.927 809.698 360.774 809.093 360.774C808.462 360.774 807.936 360.936 807.516 361.259C807.1 361.579 806.786 362.014 806.576 362.565C806.37 363.111 806.267 363.725 806.267 364.406C806.267 365.096 806.372 365.722 806.582 366.286C806.797 366.845 807.112 367.291 807.528 367.623C807.949 367.951 808.47 368.115 809.093 368.115ZM820.325 369.452C819.392 369.452 818.586 369.246 817.909 368.834C817.237 368.417 816.717 367.837 816.352 367.093C815.99 366.345 815.809 365.474 815.809 364.482C815.809 363.49 815.99 362.615 816.352 361.858C816.717 361.097 817.226 360.505 817.878 360.08C818.534 359.651 819.299 359.437 820.174 359.437C820.678 359.437 821.176 359.521 821.668 359.689C822.16 359.857 822.608 360.13 823.012 360.509C823.415 360.883 823.737 361.379 823.977 361.997C824.216 362.615 824.336 363.376 824.336 364.28V364.911H816.869V363.624H822.822C822.822 363.078 822.713 362.59 822.495 362.161C822.28 361.732 821.973 361.394 821.574 361.146C821.178 360.898 820.712 360.774 820.174 360.774C819.581 360.774 819.068 360.921 818.635 361.215C818.206 361.505 817.876 361.884 817.645 362.35C817.413 362.817 817.298 363.317 817.298 363.851V364.709C817.298 365.441 817.424 366.061 817.676 366.57C817.933 367.074 818.288 367.459 818.742 367.724C819.196 367.984 819.724 368.115 820.325 368.115C820.716 368.115 821.069 368.06 821.385 367.951C821.704 367.837 821.979 367.669 822.211 367.446C822.442 367.219 822.621 366.937 822.747 366.601L824.185 367.005C824.033 367.492 823.779 367.921 823.422 368.291C823.064 368.657 822.623 368.943 822.097 369.149C821.572 369.351 820.981 369.452 820.325 369.452ZM831.595 369.25V359.563H833.033V361.076H833.159C833.361 360.559 833.687 360.158 834.137 359.872C834.587 359.582 835.127 359.437 835.758 359.437C836.397 359.437 836.929 359.582 837.353 359.872C837.782 360.158 838.116 360.559 838.356 361.076H838.457C838.705 360.576 839.077 360.179 839.573 359.884C840.07 359.586 840.664 359.437 841.358 359.437C842.224 359.437 842.933 359.708 843.484 360.25C844.034 360.788 844.31 361.627 844.31 362.767V369.25H842.821V362.767C842.821 362.052 842.626 361.541 842.235 361.234C841.844 360.927 841.383 360.774 840.854 360.774C840.173 360.774 839.645 360.98 839.271 361.392C838.896 361.8 838.709 362.317 838.709 362.943V369.25H837.196V362.615C837.196 362.064 837.017 361.621 836.66 361.284C836.302 360.944 835.842 360.774 835.278 360.774C834.892 360.774 834.53 360.877 834.194 361.083C833.861 361.289 833.592 361.575 833.386 361.94C833.185 362.302 833.084 362.72 833.084 363.195V369.25H831.595ZM849.882 369.477C849.268 369.477 848.711 369.361 848.211 369.13C847.71 368.895 847.313 368.556 847.019 368.115C846.724 367.669 846.577 367.131 846.577 366.5C846.577 365.945 846.686 365.495 846.905 365.151C847.124 364.802 847.416 364.528 847.782 364.331C848.147 364.133 848.551 363.986 848.993 363.889C849.438 363.788 849.886 363.708 850.336 363.65C850.925 363.574 851.402 363.517 851.768 363.479C852.138 363.437 852.407 363.368 852.575 363.271C852.747 363.174 852.833 363.006 852.833 362.767V362.716C852.833 362.094 852.663 361.61 852.323 361.266C851.986 360.921 851.475 360.748 850.79 360.748C850.079 360.748 849.522 360.904 849.119 361.215C848.715 361.526 848.431 361.858 848.267 362.212L846.855 361.707C847.107 361.118 847.443 360.66 847.864 360.332C848.288 360 848.751 359.769 849.251 359.638C849.756 359.504 850.252 359.437 850.74 359.437C851.051 359.437 851.408 359.474 851.812 359.55C852.22 359.622 852.613 359.771 852.991 359.998C853.374 360.225 853.691 360.568 853.943 361.026C854.196 361.484 854.322 362.098 854.322 362.867V369.25H852.833V367.938H852.758C852.657 368.148 852.489 368.373 852.253 368.613C852.018 368.853 851.705 369.057 851.314 369.225C850.922 369.393 850.445 369.477 849.882 369.477ZM850.109 368.14C850.698 368.14 851.194 368.024 851.597 367.793C852.005 367.562 852.312 367.263 852.518 366.898C852.728 366.532 852.833 366.147 852.833 365.743V364.381C852.77 364.457 852.632 364.526 852.417 364.589C852.207 364.648 851.963 364.701 851.686 364.747C851.412 364.789 851.145 364.827 850.885 364.86C850.628 364.89 850.42 364.915 850.26 364.936C849.873 364.987 849.512 365.069 849.176 365.182C848.843 365.291 848.574 365.457 848.368 365.68C848.166 365.899 848.066 366.197 848.066 366.576C848.066 367.093 848.257 367.484 848.639 367.749C849.026 368.01 849.516 368.14 850.109 368.14ZM857.039 369.25V359.563H858.476V361.026H858.577C858.754 360.547 859.074 360.158 859.536 359.859C859.999 359.561 860.52 359.411 861.1 359.411C861.209 359.411 861.346 359.413 861.51 359.418C861.674 359.422 861.798 359.428 861.882 359.437V360.95C861.832 360.938 861.716 360.919 861.535 360.893C861.359 360.864 861.172 360.849 860.974 360.849C860.503 360.849 860.083 360.948 859.713 361.146C859.347 361.339 859.057 361.608 858.842 361.953C858.632 362.294 858.527 362.682 858.527 363.12V369.25H857.039ZM869.961 372.883V367.762H869.835C869.726 367.938 869.57 368.161 869.368 368.43C869.167 368.695 868.879 368.933 868.504 369.143C868.13 369.349 867.632 369.452 867.01 369.452C866.202 369.452 865.49 369.248 864.872 368.84C864.254 368.428 863.77 367.848 863.421 367.099C863.072 366.347 862.898 365.457 862.898 364.432C862.898 363.414 863.072 362.531 863.421 361.783C863.77 361.034 864.256 360.456 864.878 360.048C865.5 359.641 866.219 359.437 867.035 359.437C867.666 359.437 868.164 359.542 868.53 359.752C868.9 359.958 869.181 360.193 869.375 360.458C869.572 360.719 869.726 360.933 869.835 361.102H870.012V359.563H871.45V372.883H869.961ZM867.211 368.115C867.808 368.115 868.313 367.959 868.725 367.648C869.137 367.333 869.45 366.898 869.665 366.343C869.879 365.783 869.986 365.138 869.986 364.406C869.986 363.683 869.881 363.05 869.671 362.508C869.461 361.961 869.15 361.537 868.738 361.234C868.326 360.927 867.817 360.774 867.211 360.774C866.581 360.774 866.055 360.936 865.635 361.259C865.218 361.579 864.905 362.014 864.695 362.565C864.489 363.111 864.386 363.725 864.386 364.406C864.386 365.096 864.491 365.722 864.701 366.286C864.916 366.845 865.231 367.291 865.647 367.623C866.068 367.951 866.589 368.115 867.211 368.115ZM880.279 365.289V359.563H881.768V369.25H880.279V367.61H880.178C879.951 368.102 879.598 368.521 879.119 368.865C878.639 369.206 878.034 369.376 877.302 369.376C876.697 369.376 876.159 369.244 875.688 368.979C875.217 368.71 874.847 368.306 874.578 367.768C874.309 367.226 874.174 366.542 874.174 365.718V359.563H875.663V365.617C875.663 366.324 875.86 366.887 876.255 367.307C876.655 367.728 877.164 367.938 877.782 367.938C878.152 367.938 878.528 367.844 878.911 367.654C879.297 367.465 879.621 367.175 879.882 366.784C880.147 366.393 880.279 365.895 880.279 365.289ZM888.555 369.452C887.622 369.452 886.817 369.246 886.14 368.834C885.467 368.417 884.948 367.837 884.582 367.093C884.22 366.345 884.04 365.474 884.04 364.482C884.04 363.49 884.22 362.615 884.582 361.858C884.948 361.097 885.457 360.505 886.108 360.08C886.764 359.651 887.529 359.437 888.404 359.437C888.908 359.437 889.407 359.521 889.899 359.689C890.391 359.857 890.838 360.13 891.242 360.509C891.646 360.883 891.967 361.379 892.207 361.997C892.447 362.615 892.566 363.376 892.566 364.28V364.911H885.099V363.624H891.053C891.053 363.078 890.943 362.59 890.725 362.161C890.51 361.732 890.203 361.394 889.804 361.146C889.409 360.898 888.942 360.774 888.404 360.774C887.811 360.774 887.298 360.921 886.865 361.215C886.436 361.505 886.106 361.884 885.875 362.35C885.644 362.817 885.528 363.317 885.528 363.851V364.709C885.528 365.441 885.654 366.061 885.906 366.57C886.163 367.074 886.518 367.459 886.972 367.724C887.426 367.984 887.954 368.115 888.555 368.115C888.946 368.115 889.299 368.06 889.615 367.951C889.934 367.837 890.21 367.669 890.441 367.446C890.672 367.219 890.851 366.937 890.977 366.601L892.415 367.005C892.264 367.492 892.009 367.921 891.652 368.291C891.295 368.657 890.853 368.943 890.327 369.149C889.802 369.351 889.211 369.452 888.555 369.452ZM704.174 396.452C703.24 396.452 702.435 396.246 701.758 395.834C701.086 395.417 700.566 394.837 700.201 394.093C699.839 393.345 699.658 392.474 699.658 391.482C699.658 390.49 699.839 389.615 700.201 388.858C700.566 388.097 701.075 387.505 701.727 387.08C702.383 386.651 703.148 386.437 704.023 386.437C704.527 386.437 705.025 386.521 705.517 386.689C706.009 386.857 706.457 387.13 706.861 387.509C707.264 387.883 707.586 388.379 707.826 388.997C708.065 389.615 708.185 390.376 708.185 391.28V391.911H700.718V390.624H706.671C706.671 390.078 706.562 389.59 706.343 389.161C706.129 388.732 705.822 388.394 705.423 388.146C705.027 387.898 704.561 387.774 704.023 387.774C703.43 387.774 702.917 387.921 702.484 388.215C702.055 388.505 701.725 388.884 701.493 389.35C701.262 389.817 701.147 390.317 701.147 390.851V391.709C701.147 392.441 701.273 393.061 701.525 393.57C701.781 394.074 702.137 394.459 702.591 394.724C703.045 394.984 703.573 395.115 704.174 395.115C704.565 395.115 704.918 395.06 705.233 394.951C705.553 394.837 705.828 394.669 706.06 394.446C706.291 394.219 706.47 393.937 706.596 393.601L708.034 394.005C707.882 394.492 707.628 394.921 707.271 395.291C706.913 395.657 706.472 395.943 705.946 396.149C705.421 396.351 704.83 396.452 704.174 396.452ZM714.662 386.563V387.824H709.642V386.563H714.662ZM711.105 384.242H712.593V393.475C712.593 393.895 712.654 394.211 712.776 394.421C712.903 394.627 713.062 394.766 713.256 394.837C713.453 394.905 713.661 394.938 713.88 394.938C714.044 394.938 714.179 394.93 714.284 394.913C714.389 394.892 714.473 394.875 714.536 394.862L714.839 396.2C714.738 396.237 714.597 396.275 714.416 396.313C714.235 396.355 714.006 396.376 713.729 396.376C713.308 396.376 712.896 396.286 712.493 396.105C712.093 395.924 711.761 395.649 711.496 395.279C711.235 394.909 711.105 394.442 711.105 393.879V384.242ZM722.098 396.25V383.334H723.586V388.102H723.712C723.822 387.933 723.973 387.719 724.166 387.458C724.364 387.193 724.646 386.958 725.012 386.752C725.382 386.542 725.882 386.437 726.513 386.437C727.328 386.437 728.047 386.641 728.67 387.048C729.292 387.456 729.777 388.034 730.126 388.783C730.475 389.531 730.65 390.414 730.65 391.432C730.65 392.457 730.475 393.347 730.126 394.099C729.777 394.848 729.294 395.428 728.676 395.84C728.058 396.248 727.345 396.452 726.538 396.452C725.916 396.452 725.417 396.349 725.043 396.143C724.669 395.933 724.381 395.695 724.179 395.43C723.977 395.161 723.822 394.938 723.712 394.762H723.536V396.25H722.098ZM723.561 391.406C723.561 392.138 723.668 392.783 723.883 393.343C724.097 393.898 724.41 394.333 724.822 394.648C725.234 394.959 725.739 395.115 726.336 395.115C726.958 395.115 727.478 394.951 727.894 394.623C728.314 394.291 728.63 393.845 728.84 393.286C729.054 392.722 729.161 392.096 729.161 391.406C729.161 390.725 729.056 390.111 728.846 389.565C728.64 389.014 728.327 388.579 727.906 388.259C727.49 387.936 726.967 387.774 726.336 387.774C725.731 387.774 725.222 387.927 724.81 388.234C724.398 388.537 724.087 388.961 723.876 389.508C723.666 390.05 723.561 390.683 723.561 391.406ZM732.927 396.25V386.563H734.365V388.026H734.466C734.642 387.547 734.962 387.158 735.424 386.859C735.887 386.561 736.408 386.411 736.988 386.411C737.098 386.411 737.234 386.413 737.398 386.418C737.562 386.422 737.686 386.428 737.77 386.437V387.95C737.72 387.938 737.604 387.919 737.423 387.893C737.247 387.864 737.06 387.849 736.862 387.849C736.391 387.849 735.971 387.948 735.601 388.146C735.235 388.339 734.945 388.608 734.73 388.953C734.52 389.294 734.415 389.682 734.415 390.12V396.25H732.927ZM742.385 396.477C741.771 396.477 741.214 396.361 740.714 396.13C740.214 395.895 739.816 395.556 739.522 395.115C739.228 394.669 739.081 394.131 739.081 393.5C739.081 392.945 739.19 392.495 739.408 392.151C739.627 391.802 739.919 391.528 740.285 391.331C740.651 391.133 741.055 390.986 741.496 390.889C741.942 390.788 742.39 390.708 742.839 390.65C743.428 390.574 743.905 390.517 744.271 390.479C744.641 390.437 744.91 390.368 745.078 390.271C745.251 390.174 745.337 390.006 745.337 389.767V389.716C745.337 389.094 745.167 388.61 744.826 388.266C744.49 387.921 743.979 387.748 743.293 387.748C742.583 387.748 742.026 387.904 741.622 388.215C741.219 388.526 740.935 388.858 740.771 389.212L739.358 388.707C739.61 388.118 739.947 387.66 740.367 387.332C740.792 387 741.254 386.769 741.755 386.638C742.259 386.504 742.755 386.437 743.243 386.437C743.554 386.437 743.912 386.474 744.315 386.55C744.723 386.622 745.116 386.771 745.495 386.998C745.877 387.225 746.195 387.568 746.447 388.026C746.699 388.484 746.825 389.098 746.825 389.867V396.25H745.337V394.938H745.261C745.16 395.148 744.992 395.373 744.757 395.613C744.521 395.853 744.208 396.057 743.817 396.225C743.426 396.393 742.949 396.477 742.385 396.477ZM742.612 395.14C743.201 395.14 743.697 395.024 744.101 394.793C744.509 394.562 744.816 394.263 745.022 393.898C745.232 393.532 745.337 393.147 745.337 392.743V391.381C745.274 391.457 745.135 391.526 744.921 391.589C744.71 391.648 744.467 391.701 744.189 391.747C743.916 391.789 743.649 391.827 743.388 391.86C743.132 391.89 742.923 391.915 742.764 391.936C742.377 391.987 742.015 392.069 741.679 392.182C741.347 392.291 741.078 392.457 740.872 392.68C740.67 392.899 740.569 393.197 740.569 393.576C740.569 394.093 740.76 394.484 741.143 394.749C741.53 395.01 742.02 395.14 742.612 395.14ZM751.03 390.422V396.25H749.542V386.563H750.98V388.076H751.106C751.333 387.584 751.678 387.189 752.14 386.891C752.603 386.588 753.2 386.437 753.932 386.437C754.587 386.437 755.161 386.571 755.653 386.84C756.145 387.105 756.528 387.509 756.801 388.051C757.074 388.589 757.211 389.27 757.211 390.095V396.25H755.723V390.195C755.723 389.434 755.525 388.842 755.13 388.417C754.735 387.988 754.192 387.774 753.503 387.774C753.028 387.774 752.603 387.877 752.229 388.083C751.859 388.289 751.566 388.589 751.352 388.985C751.138 389.38 751.03 389.859 751.03 390.422ZM763.589 396.452C762.782 396.452 762.069 396.248 761.451 395.84C760.833 395.428 760.349 394.848 760 394.099C759.651 393.347 759.477 392.457 759.477 391.432C759.477 390.414 759.651 389.531 760 388.783C760.349 388.034 760.835 387.456 761.457 387.048C762.079 386.641 762.798 386.437 763.614 386.437C764.245 386.437 764.743 386.542 765.109 386.752C765.479 386.958 765.76 387.193 765.954 387.458C766.151 387.719 766.305 387.933 766.414 388.102H766.54V383.334H768.029V396.25H766.591V394.762H766.414C766.305 394.938 766.149 395.161 765.948 395.43C765.746 395.695 765.458 395.933 765.084 396.143C764.709 396.349 764.211 396.452 763.589 396.452ZM763.791 395.115C764.388 395.115 764.892 394.959 765.304 394.648C765.716 394.333 766.03 393.898 766.244 393.343C766.458 392.783 766.566 392.138 766.566 391.406C766.566 390.683 766.461 390.05 766.25 389.508C766.04 388.961 765.729 388.537 765.317 388.234C764.905 387.927 764.396 387.774 763.791 387.774C763.16 387.774 762.634 387.936 762.214 388.259C761.798 388.579 761.484 389.014 761.274 389.565C761.068 390.111 760.965 390.725 760.965 391.406C760.965 392.096 761.07 392.722 761.281 393.286C761.495 393.845 761.81 394.291 762.227 394.623C762.647 394.951 763.168 395.115 763.791 395.115ZM779.892 396.452C778.984 396.452 778.202 396.237 777.546 395.809C776.89 395.38 776.385 394.789 776.032 394.036C775.679 393.284 775.502 392.424 775.502 391.457C775.502 390.473 775.683 389.605 776.045 388.852C776.411 388.095 776.919 387.505 777.571 387.08C778.227 386.651 778.992 386.437 779.867 386.437C780.548 386.437 781.162 386.563 781.708 386.815C782.255 387.067 782.703 387.42 783.052 387.875C783.401 388.329 783.617 388.858 783.701 389.464H782.213C782.099 389.022 781.847 388.631 781.456 388.291C781.069 387.946 780.548 387.774 779.892 387.774C779.312 387.774 778.803 387.925 778.366 388.228C777.933 388.526 777.594 388.949 777.35 389.495C777.111 390.038 776.991 390.675 776.991 391.406C776.991 392.155 777.109 392.806 777.344 393.361C777.584 393.916 777.92 394.347 778.353 394.654C778.79 394.961 779.303 395.115 779.892 395.115C780.279 395.115 780.63 395.047 780.945 394.913C781.261 394.778 781.528 394.585 781.746 394.333C781.965 394.08 782.12 393.778 782.213 393.425H783.701C783.617 393.996 783.409 394.511 783.077 394.97C782.749 395.424 782.314 395.785 781.771 396.054C781.233 396.319 780.607 396.452 779.892 396.452ZM789.813 396.452C788.938 396.452 788.171 396.244 787.511 395.827C786.855 395.411 786.342 394.829 785.972 394.08C785.606 393.332 785.423 392.457 785.423 391.457C785.423 390.448 785.606 389.567 785.972 388.814C786.342 388.062 786.855 387.477 787.511 387.061C788.171 386.645 788.938 386.437 789.813 386.437C790.687 386.437 791.452 386.645 792.108 387.061C792.768 387.477 793.281 388.062 793.647 388.814C794.017 389.567 794.202 390.448 794.202 391.457C794.202 392.457 794.017 393.332 793.647 394.08C793.281 394.829 792.768 395.411 792.108 395.827C791.452 396.244 790.687 396.452 789.813 396.452ZM789.813 395.115C790.477 395.115 791.023 394.944 791.452 394.604C791.881 394.263 792.199 393.816 792.405 393.261C792.611 392.706 792.714 392.104 792.714 391.457C792.714 390.809 792.611 390.206 792.405 389.647C792.199 389.088 791.881 388.636 791.452 388.291C791.023 387.946 790.477 387.774 789.813 387.774C789.148 387.774 788.602 387.946 788.173 388.291C787.744 388.636 787.426 389.088 787.22 389.647C787.014 390.206 786.911 390.809 786.911 391.457C786.911 392.104 787.014 392.706 787.22 393.261C787.426 393.816 787.744 394.263 788.173 394.604C788.602 394.944 789.148 395.115 789.813 395.115ZM797.963 390.422V396.25H796.474V386.563H797.912V388.076H798.038C798.265 387.584 798.61 387.189 799.073 386.891C799.535 386.588 800.132 386.437 800.864 386.437C801.52 386.437 802.094 386.571 802.585 386.84C803.077 387.105 803.46 387.509 803.733 388.051C804.007 388.589 804.143 389.27 804.143 390.095V396.25H802.655V390.195C802.655 389.434 802.457 388.842 802.062 388.417C801.667 387.988 801.124 387.774 800.435 387.774C799.96 387.774 799.535 387.877 799.161 388.083C798.791 388.289 798.499 388.589 798.284 388.985C798.07 389.38 797.963 389.859 797.963 390.422ZM811.076 386.563V387.824H806.056V386.563H811.076ZM807.519 384.242H809.007V393.475C809.007 393.895 809.068 394.211 809.19 394.421C809.316 394.627 809.476 394.766 809.67 394.837C809.867 394.905 810.075 394.938 810.294 394.938C810.458 394.938 810.592 394.93 810.698 394.913C810.803 394.892 810.887 394.875 810.95 394.862L811.253 396.2C811.152 396.237 811.011 396.275 810.83 396.313C810.649 396.355 810.42 396.376 810.143 396.376C809.722 396.376 809.31 396.286 808.906 396.105C808.507 395.924 808.175 395.649 807.91 395.279C807.649 394.909 807.519 394.442 807.519 393.879V384.242ZM817.272 396.452C816.339 396.452 815.534 396.246 814.857 395.834C814.184 395.417 813.665 394.837 813.299 394.093C812.938 393.345 812.757 392.474 812.757 391.482C812.757 390.49 812.938 389.615 813.299 388.858C813.665 388.097 814.174 387.505 814.825 387.08C815.481 386.651 816.247 386.437 817.121 386.437C817.626 386.437 818.124 386.521 818.616 386.689C819.108 386.857 819.556 387.13 819.959 387.509C820.363 387.883 820.684 388.379 820.924 388.997C821.164 389.615 821.284 390.376 821.284 391.28V391.911H813.816V390.624H819.77C819.77 390.078 819.661 389.59 819.442 389.161C819.228 388.732 818.921 388.394 818.521 388.146C818.126 387.898 817.659 387.774 817.121 387.774C816.528 387.774 816.015 387.921 815.582 388.215C815.153 388.505 814.823 388.884 814.592 389.35C814.361 389.817 814.245 390.317 814.245 390.851V391.709C814.245 392.441 814.371 393.061 814.624 393.57C814.88 394.074 815.235 394.459 815.689 394.724C816.144 394.984 816.671 395.115 817.272 395.115C817.663 395.115 818.017 395.06 818.332 394.951C818.652 394.837 818.927 394.669 819.158 394.446C819.389 394.219 819.568 393.937 819.694 393.601L821.132 394.005C820.981 394.492 820.726 394.921 820.369 395.291C820.012 395.657 819.57 395.943 819.045 396.149C818.519 396.351 817.928 396.452 817.272 396.452ZM825.036 390.422V396.25H823.548V386.563H824.986V388.076H825.112C825.339 387.584 825.684 387.189 826.146 386.891C826.609 386.588 827.206 386.437 827.937 386.437C828.593 386.437 829.167 386.571 829.659 386.84C830.151 387.105 830.534 387.509 830.807 388.051C831.08 388.589 831.217 389.27 831.217 390.095V396.25H829.728V390.195C829.728 389.434 829.531 388.842 829.136 388.417C828.74 387.988 828.198 387.774 827.508 387.774C827.033 387.774 826.609 387.877 826.234 388.083C825.864 388.289 825.572 388.589 825.358 388.985C825.143 389.38 825.036 389.859 825.036 390.422ZM838.15 386.563V387.824H833.129V386.563H838.15ZM834.593 384.242H836.081V393.475C836.081 393.895 836.142 394.211 836.264 394.421C836.39 394.627 836.55 394.766 836.743 394.837C836.941 394.905 837.149 394.938 837.368 394.938C837.532 394.938 837.666 394.93 837.771 394.913C837.876 394.892 837.96 394.875 838.023 394.862L838.326 396.2C838.225 396.237 838.084 396.275 837.904 396.313C837.723 396.355 837.494 396.376 837.216 396.376C836.796 396.376 836.384 396.286 835.98 396.105C835.581 395.924 835.248 395.649 834.984 395.279C834.723 394.909 834.593 394.442 834.593 393.879V384.242Z" fill="#EDF738"/>
<path d="M454.242 138.094V79.9119H479.356C483.674 79.9119 487.452 80.6979 490.691 82.2699C493.93 83.8418 496.449 86.1051 498.248 89.0596C500.047 92.0142 500.947 95.5558 500.947 99.6846C500.947 103.851 500.019 107.365 498.163 110.224C496.326 113.084 493.74 115.243 490.407 116.702C487.093 118.16 483.219 118.889 478.788 118.889H463.788V106.616H475.606C477.462 106.616 479.043 106.389 480.35 105.935C481.676 105.461 482.689 104.713 483.39 103.69C484.11 102.668 484.469 101.332 484.469 99.6846C484.469 98.018 484.11 96.6638 483.39 95.6221C482.689 94.5615 481.676 93.785 480.35 93.2926C479.043 92.7812 477.462 92.5255 475.606 92.5255H470.038V138.094H454.242ZM488.333 111.389L502.879 138.094H485.719L471.515 111.389H488.333ZM509.28 138.094V79.9119H551.212V92.6392H525.075V102.639H549.052V115.366H525.075V125.366H551.098V138.094H509.28ZM576.554 79.9119L588.486 120.935H588.941L600.873 79.9119H618.713L599.509 138.094H577.918L558.713 79.9119H576.554ZM625.917 138.094V79.9119H667.849V92.6392H641.713V102.639H665.69V115.366H641.713V125.366H667.735V138.094H625.917ZM692.396 138.094H675.351L694.556 79.9119H716.146L735.351 138.094H718.306L705.578 95.9346H705.124L692.396 138.094ZM689.215 115.139H721.26V126.957H689.215V115.139ZM742.555 138.094V79.9119H758.35V125.366H781.873V138.094H742.555Z" fill="#EDF738"/>
<g clip-path="url(#clip2_4_4085)">
<path d="M348.783 188.639V175.912H399.351V188.639H381.851V234.094H366.283V188.639H348.783ZM406.895 234.094V175.912H422.691V198.639H443.6V175.912H459.395V234.094H443.6V211.366H422.691V234.094H406.895ZM468.495 234.094V175.912H510.427V188.639H484.291V198.639H508.268V211.366H484.291V221.366H510.314V234.094H468.495ZM537.398 234.094V175.912H562.626C567.058 175.912 570.779 176.508 573.79 177.702C576.821 178.895 579.103 180.58 580.637 182.758C582.19 184.937 582.967 187.503 582.967 190.457C582.967 192.598 582.493 194.548 581.546 196.31C580.618 198.071 579.311 199.548 577.626 200.741C575.94 201.916 573.97 202.73 571.717 203.185V203.753C574.217 203.848 576.489 204.482 578.535 205.656C580.58 206.812 582.209 208.412 583.421 210.457C584.633 212.484 585.239 214.87 585.239 217.616C585.239 220.798 584.406 223.63 582.739 226.111C581.092 228.592 578.743 230.543 575.694 231.963C572.645 233.383 569.008 234.094 564.785 234.094H537.398ZM553.194 221.48H560.58C563.232 221.48 565.22 220.988 566.546 220.003C567.872 218.999 568.535 217.522 568.535 215.571C568.535 214.207 568.222 213.052 567.597 212.105C566.972 211.158 566.082 210.438 564.927 209.946C563.79 209.454 562.417 209.207 560.808 209.207H553.194V221.48ZM553.194 199.435H559.671C561.054 199.435 562.275 199.217 563.336 198.781C564.397 198.346 565.22 197.721 565.808 196.906C566.414 196.073 566.717 195.06 566.717 193.866C566.717 192.067 566.073 190.694 564.785 189.747C563.497 188.781 561.868 188.298 559.898 188.298H553.194V199.435ZM592.436 234.094V175.912H634.368V188.639H608.231V198.639H632.209V211.366H608.231V221.366H634.254V234.094H592.436ZM647.892 240.685V169.321H674.029V180.685H663.12V229.321H674.029V240.685H647.892ZM695.75 234.094H678.704L697.909 175.912H719.5L738.704 234.094H721.659L708.931 191.935H708.477L695.75 234.094ZM692.568 211.139H724.613V222.957H692.568V211.139ZM769.544 169.321V240.685H743.408V229.321H754.317V180.685H743.408V169.321H769.544ZM814.106 194.094C813.954 192.2 813.244 190.723 811.975 189.662C810.725 188.601 808.822 188.071 806.265 188.071C804.636 188.071 803.301 188.27 802.259 188.668C801.237 189.046 800.479 189.567 799.987 190.23C799.494 190.893 799.238 191.651 799.219 192.503C799.182 193.204 799.305 193.838 799.589 194.406C799.892 194.955 800.365 195.457 801.009 195.912C801.653 196.348 802.477 196.745 803.481 197.105C804.485 197.465 805.678 197.787 807.06 198.071L811.833 199.094C815.053 199.776 817.808 200.675 820.1 201.793C822.392 202.91 824.267 204.226 825.725 205.741C827.183 207.238 828.254 208.923 828.935 210.798C829.636 212.673 829.996 214.719 830.015 216.935C829.996 220.76 829.04 223.999 827.146 226.651C825.252 229.302 822.543 231.319 819.021 232.702C815.517 234.084 811.303 234.776 806.379 234.776C801.322 234.776 796.909 234.027 793.14 232.531C789.39 231.035 786.473 228.734 784.39 225.628C782.326 222.503 781.284 218.507 781.265 213.639H796.265C796.36 215.419 796.805 216.916 797.6 218.128C798.396 219.34 799.513 220.258 800.952 220.883C802.411 221.508 804.144 221.821 806.151 221.821C807.837 221.821 809.248 221.613 810.384 221.196C811.521 220.779 812.382 220.202 812.969 219.463C813.557 218.724 813.86 217.882 813.879 216.935C813.86 216.044 813.566 215.268 812.998 214.605C812.449 213.923 811.54 213.317 810.271 212.787C809.002 212.238 807.288 211.726 805.129 211.253L799.333 210.003C794.182 208.885 790.119 207.02 787.146 204.406C784.191 201.774 782.723 198.185 782.742 193.639C782.723 189.946 783.708 186.717 785.697 183.952C787.704 181.168 790.479 178.999 794.021 177.446C797.581 175.893 801.663 175.116 806.265 175.116C810.962 175.116 815.024 175.902 818.452 177.474C821.88 179.046 824.522 181.262 826.379 184.122C828.254 186.963 829.201 190.287 829.219 194.094H814.106ZM836.033 188.639V175.912H886.601V188.639H869.101V234.094H853.533V188.639H836.033Z" fill="#EDF738"/>
</g>
<rect x="562.984" y="293.094" width="109.266" height="20.7969" rx="2" fill="#EDF738"/>
<path d="M568.041 308.094V299.366H569.098V303.253H573.751V299.366H574.808V308.094H573.751V304.19H569.098V308.094H568.041ZM577.174 299.366H578.384L580.805 303.44H580.907L583.327 299.366H584.538L581.384 304.497V308.094H580.327V304.497L577.174 299.366ZM586.904 308.094V299.366H589.853C590.538 299.366 591.098 299.49 591.532 299.737C591.97 299.981 592.294 300.312 592.504 300.73C592.714 301.148 592.819 301.614 592.819 302.128C592.819 302.642 592.714 303.109 592.504 303.53C592.297 303.95 591.975 304.285 591.541 304.535C591.106 304.783 590.549 304.906 589.87 304.906H587.757V303.969H589.836C590.305 303.969 590.681 303.888 590.966 303.726C591.25 303.564 591.456 303.345 591.583 303.07C591.714 302.791 591.779 302.477 591.779 302.128C591.779 301.778 591.714 301.466 591.583 301.19C591.456 300.915 591.248 300.699 590.961 300.543C590.674 300.383 590.294 300.304 589.819 300.304H587.961V308.094H586.904ZM595.522 308.094V299.366H600.789V300.304H596.578V303.253H600.516V304.19H596.578V307.156H600.857V308.094H595.522ZM603.694 308.094V299.366H606.642C607.324 299.366 607.884 299.483 608.321 299.716C608.759 299.946 609.083 300.263 609.293 300.666C609.503 301.07 609.608 301.528 609.608 302.043C609.608 302.557 609.503 303.013 609.293 303.41C609.083 303.808 608.76 304.121 608.326 304.348C607.891 304.572 607.336 304.685 606.659 304.685H604.273V303.73H606.625C607.091 303.73 607.466 303.662 607.75 303.526C608.037 303.389 608.245 303.196 608.373 302.946C608.503 302.693 608.569 302.392 608.569 302.043C608.569 301.693 608.503 301.388 608.373 301.126C608.242 300.865 608.033 300.663 607.746 300.521C607.459 300.376 607.08 300.304 606.608 300.304H604.75V308.094H603.694ZM607.801 304.173L609.949 308.094H608.722L606.608 304.173H607.801ZM612.369 308.094V299.366H617.636V300.304H613.426V303.253H617.364V304.19H613.426V307.156H617.705V308.094H612.369ZM620.899 308.094H619.791L622.996 299.366H624.087L627.291 308.094H626.183L623.575 300.747H623.507L620.899 308.094ZM621.308 304.685H625.774V305.622H621.308V304.685ZM629.651 308.094V299.366H630.707V307.156H634.764V308.094H629.651ZM638.457 299.366V308.094H637.401V299.366H638.457ZM646.349 301.548C646.298 301.116 646.091 300.781 645.727 300.543C645.363 300.304 644.917 300.185 644.389 300.185C644.002 300.185 643.664 300.247 643.375 300.372C643.088 300.497 642.863 300.669 642.701 300.888C642.542 301.106 642.463 301.355 642.463 301.633C642.463 301.866 642.518 302.067 642.629 302.234C642.743 302.399 642.887 302.537 643.064 302.648C643.24 302.756 643.424 302.845 643.618 302.916C643.811 302.984 643.988 303.04 644.15 303.082L645.037 303.321C645.264 303.381 645.517 303.463 645.795 303.568C646.076 303.673 646.345 303.817 646.6 303.999C646.859 304.177 647.072 304.408 647.24 304.689C647.407 304.97 647.491 305.315 647.491 305.724C647.491 306.196 647.368 306.622 647.12 307.003C646.876 307.383 646.518 307.686 646.047 307.91C645.578 308.135 645.008 308.247 644.338 308.247C643.713 308.247 643.172 308.146 642.714 307.945C642.26 307.743 641.902 307.462 641.64 307.101C641.382 306.74 641.235 306.321 641.201 305.844H642.292C642.321 306.173 642.431 306.446 642.625 306.662C642.821 306.875 643.068 307.034 643.366 307.139C643.667 307.241 643.991 307.293 644.338 307.293C644.741 307.293 645.103 307.227 645.424 307.097C645.745 306.963 646 306.778 646.187 306.543C646.375 306.304 646.468 306.026 646.468 305.707C646.468 305.418 646.387 305.182 646.225 305C646.064 304.818 645.85 304.67 645.586 304.557C645.322 304.443 645.037 304.344 644.73 304.258L643.656 303.952C642.974 303.756 642.434 303.476 642.037 303.112C641.639 302.749 641.44 302.273 641.44 301.685C641.44 301.196 641.572 300.77 641.836 300.406C642.103 300.04 642.461 299.756 642.91 299.554C643.362 299.349 643.866 299.247 644.423 299.247C644.985 299.247 645.485 299.348 645.923 299.55C646.36 299.749 646.707 300.021 646.963 300.368C647.221 300.714 647.358 301.108 647.372 301.548H646.349ZM649.751 300.304V299.366H656.297V300.304H653.553V308.094H652.496V300.304H649.751Z" fill="black"/>
<path d="M1128.48 207.267C1127.84 207.267 1127.29 207.116 1126.83 206.814C1126.37 206.511 1126.01 206.095 1125.76 205.564C1125.51 205.034 1125.39 204.428 1125.39 203.746C1125.39 203.052 1125.52 202.44 1125.77 201.91C1126.03 201.376 1126.39 200.96 1126.85 200.66C1127.31 200.358 1127.85 200.207 1128.47 200.207C1128.95 200.207 1129.38 200.296 1129.77 200.474C1130.15 200.652 1130.47 200.901 1130.71 201.221C1130.96 201.541 1131.11 201.914 1131.17 202.341H1130.12C1130.04 202.03 1129.86 201.754 1129.59 201.514C1129.31 201.271 1128.95 201.15 1128.48 201.15C1128.08 201.15 1127.72 201.256 1127.41 201.47C1127.1 201.68 1126.86 201.978 1126.69 202.363C1126.52 202.746 1126.44 203.195 1126.44 203.71C1126.44 204.238 1126.52 204.697 1126.69 205.089C1126.86 205.48 1127.09 205.784 1127.4 206C1127.71 206.216 1128.07 206.325 1128.48 206.325C1128.76 206.325 1129 206.277 1129.23 206.182C1129.45 206.088 1129.64 205.951 1129.79 205.773C1129.95 205.596 1130.06 205.382 1130.12 205.133H1131.17C1131.11 205.536 1130.96 205.899 1130.73 206.222C1130.5 206.543 1130.19 206.797 1129.81 206.987C1129.43 207.174 1128.99 207.267 1128.48 207.267ZM1132.7 207.125V200.296H1133.72V201.327H1133.79C1133.91 200.989 1134.14 200.715 1134.46 200.505C1134.79 200.294 1135.16 200.189 1135.57 200.189C1135.64 200.189 1135.74 200.191 1135.86 200.194C1135.97 200.197 1136.06 200.201 1136.12 200.207V201.274C1136.08 201.265 1136 201.252 1135.87 201.234C1135.75 201.213 1135.62 201.203 1135.48 201.203C1135.15 201.203 1134.85 201.273 1134.59 201.412C1134.33 201.548 1134.13 201.738 1133.98 201.981C1133.83 202.221 1133.75 202.495 1133.75 202.803V207.125H1132.7ZM1140.02 207.267C1139.36 207.267 1138.79 207.122 1138.31 206.832C1137.84 206.538 1137.47 206.129 1137.22 205.604C1136.96 205.077 1136.83 204.463 1136.83 203.764C1136.83 203.064 1136.96 202.448 1137.22 201.914C1137.47 201.378 1137.83 200.96 1138.29 200.66C1138.75 200.358 1139.29 200.207 1139.91 200.207C1140.27 200.207 1140.62 200.266 1140.96 200.385C1141.31 200.503 1141.63 200.696 1141.91 200.963C1142.2 201.227 1142.42 201.576 1142.59 202.012C1142.76 202.448 1142.85 202.984 1142.85 203.622V204.066H1137.58V203.159H1141.78C1141.78 202.774 1141.7 202.43 1141.55 202.128C1141.4 201.825 1141.18 201.587 1140.9 201.412C1140.62 201.237 1140.29 201.15 1139.91 201.15C1139.49 201.15 1139.13 201.253 1138.83 201.461C1138.52 201.665 1138.29 201.932 1138.13 202.261C1137.97 202.59 1137.88 202.943 1137.88 203.319V203.924C1137.88 204.44 1137.97 204.877 1138.15 205.235C1138.33 205.591 1138.58 205.862 1138.9 206.049C1139.22 206.233 1139.59 206.325 1140.02 206.325C1140.29 206.325 1140.54 206.286 1140.76 206.209C1140.99 206.129 1141.18 206.01 1141.35 205.853C1141.51 205.693 1141.64 205.495 1141.72 205.258L1142.74 205.542C1142.63 205.886 1142.45 206.188 1142.2 206.449C1141.95 206.707 1141.64 206.909 1141.27 207.054C1140.9 207.196 1140.48 207.267 1140.02 207.267ZM1146.45 207.285C1146.02 207.285 1145.63 207.204 1145.27 207.04C1144.92 206.875 1144.64 206.636 1144.43 206.325C1144.23 206.01 1144.12 205.631 1144.12 205.187C1144.12 204.795 1144.2 204.478 1144.35 204.235C1144.51 203.989 1144.71 203.796 1144.97 203.657C1145.23 203.518 1145.51 203.414 1145.82 203.346C1146.14 203.275 1146.45 203.218 1146.77 203.177C1147.19 203.124 1147.52 203.084 1147.78 203.057C1148.04 203.027 1148.23 202.978 1148.35 202.91C1148.47 202.842 1148.53 202.723 1148.53 202.554V202.519C1148.53 202.08 1148.41 201.739 1148.17 201.496C1147.93 201.253 1147.57 201.132 1147.09 201.132C1146.59 201.132 1146.2 201.241 1145.91 201.461C1145.63 201.68 1145.43 201.914 1145.31 202.163L1144.32 201.808C1144.49 201.393 1144.73 201.069 1145.03 200.838C1145.33 200.604 1145.65 200.441 1146.01 200.349C1146.36 200.254 1146.71 200.207 1147.06 200.207C1147.28 200.207 1147.53 200.234 1147.81 200.287C1148.1 200.337 1148.38 200.443 1148.64 200.603C1148.91 200.763 1149.14 201.004 1149.31 201.327C1149.49 201.65 1149.58 202.083 1149.58 202.626V207.125H1148.53V206.2H1148.48C1148.41 206.348 1148.29 206.507 1148.12 206.676C1147.96 206.845 1147.74 206.989 1147.46 207.107C1147.18 207.226 1146.85 207.285 1146.45 207.285ZM1146.61 206.342C1147.03 206.342 1147.38 206.261 1147.66 206.098C1147.95 205.935 1148.16 205.724 1148.31 205.467C1148.46 205.209 1148.53 204.938 1148.53 204.653V203.693C1148.49 203.746 1148.39 203.795 1148.24 203.839C1148.09 203.881 1147.92 203.918 1147.72 203.951C1147.53 203.98 1147.34 204.007 1147.16 204.031C1146.98 204.051 1146.83 204.069 1146.72 204.084C1146.45 204.119 1146.19 204.177 1145.95 204.257C1145.72 204.334 1145.53 204.451 1145.38 204.609C1145.24 204.763 1145.17 204.973 1145.17 205.24C1145.17 205.604 1145.31 205.88 1145.58 206.067C1145.85 206.251 1146.19 206.342 1146.61 206.342ZM1154.47 200.296V201.185H1150.93V200.296H1154.47ZM1151.96 198.66H1153.01V205.169C1153.01 205.465 1153.05 205.687 1153.14 205.836C1153.23 205.981 1153.34 206.079 1153.47 206.129C1153.61 206.176 1153.76 206.2 1153.91 206.2C1154.03 206.2 1154.13 206.194 1154.2 206.182C1154.27 206.168 1154.33 206.156 1154.38 206.147L1154.59 207.089C1154.52 207.116 1154.42 207.143 1154.29 207.169C1154.17 207.199 1154 207.214 1153.81 207.214C1153.51 207.214 1153.22 207.15 1152.94 207.023C1152.66 206.895 1152.42 206.701 1152.23 206.44C1152.05 206.179 1151.96 205.85 1151.96 205.453V198.66ZM1158.83 207.267C1158.18 207.267 1157.61 207.122 1157.13 206.832C1156.66 206.538 1156.29 206.129 1156.03 205.604C1155.78 205.077 1155.65 204.463 1155.65 203.764C1155.65 203.064 1155.78 202.448 1156.03 201.914C1156.29 201.378 1156.65 200.96 1157.11 200.66C1157.57 200.358 1158.11 200.207 1158.73 200.207C1159.08 200.207 1159.43 200.266 1159.78 200.385C1160.13 200.503 1160.44 200.696 1160.73 200.963C1161.01 201.227 1161.24 201.576 1161.41 202.012C1161.58 202.448 1161.66 202.984 1161.66 203.622V204.066H1156.4V203.159H1160.59C1160.59 202.774 1160.52 202.43 1160.36 202.128C1160.21 201.825 1160 201.587 1159.71 201.412C1159.44 201.237 1159.11 201.15 1158.73 201.15C1158.31 201.15 1157.95 201.253 1157.64 201.461C1157.34 201.665 1157.11 201.932 1156.94 202.261C1156.78 202.59 1156.7 202.943 1156.7 203.319V203.924C1156.7 204.44 1156.79 204.877 1156.97 205.235C1157.15 205.591 1157.4 205.862 1157.72 206.049C1158.04 206.233 1158.41 206.325 1158.83 206.325C1159.11 206.325 1159.36 206.286 1159.58 206.209C1159.81 206.129 1160 206.01 1160.16 205.853C1160.33 205.693 1160.45 205.495 1160.54 205.258L1161.56 205.542C1161.45 205.886 1161.27 206.188 1161.02 206.449C1160.77 206.707 1160.45 206.909 1160.08 207.054C1159.71 207.196 1159.3 207.267 1158.83 207.267Z" fill="#EDF738"/>
<rect x="1171.09" y="203.484" width="24" height="1" fill="#EDF738"/>
<path d="M1204.73 210.686C1204.55 210.686 1204.39 210.671 1204.25 210.641C1204.11 210.615 1204.02 210.588 1203.97 210.561L1204.23 209.637C1204.49 209.702 1204.71 209.726 1204.91 209.708C1205.1 209.69 1205.28 209.603 1205.43 209.445C1205.58 209.291 1205.72 209.041 1205.85 208.694L1206.05 208.161L1203.52 201.296H1204.66L1206.54 206.738H1206.62L1208.5 201.296H1209.64L1206.74 209.121C1206.61 209.474 1206.45 209.766 1206.25 209.997C1206.06 210.231 1205.84 210.404 1205.58 210.517C1205.33 210.63 1205.05 210.686 1204.73 210.686ZM1213.55 208.267C1212.94 208.267 1212.4 208.121 1211.93 207.827C1211.47 207.534 1211.11 207.123 1210.85 206.596C1210.59 206.068 1210.46 205.451 1210.46 204.746C1210.46 204.035 1210.59 203.414 1210.85 202.883C1211.11 202.353 1211.47 201.941 1211.93 201.647C1212.4 201.354 1212.94 201.207 1213.55 201.207C1214.17 201.207 1214.71 201.354 1215.17 201.647C1215.64 201.941 1216 202.353 1216.26 202.883C1216.52 203.414 1216.65 204.035 1216.65 204.746C1216.65 205.451 1216.52 206.068 1216.26 206.596C1216 207.123 1215.64 207.534 1215.17 207.827C1214.71 208.121 1214.17 208.267 1213.55 208.267ZM1213.55 207.325C1214.02 207.325 1214.41 207.205 1214.71 206.965C1215.01 206.724 1215.24 206.409 1215.38 206.018C1215.53 205.626 1215.6 205.202 1215.6 204.746C1215.6 204.29 1215.53 203.864 1215.38 203.47C1215.24 203.076 1215.01 202.757 1214.71 202.514C1214.41 202.271 1214.02 202.15 1213.55 202.15C1213.08 202.15 1212.7 202.271 1212.4 202.514C1212.09 202.757 1211.87 203.076 1211.73 203.47C1211.58 203.864 1211.51 204.29 1211.51 204.746C1211.51 205.202 1211.58 205.626 1211.73 206.018C1211.87 206.409 1212.09 206.724 1212.4 206.965C1212.7 207.205 1213.08 207.325 1213.55 207.325ZM1222.55 205.333V201.296H1223.6V208.125H1222.55V206.969H1222.48C1222.32 207.316 1222.07 207.611 1221.73 207.854C1221.4 208.094 1220.97 208.214 1220.45 208.214C1220.03 208.214 1219.65 208.121 1219.32 207.934C1218.98 207.744 1218.72 207.46 1218.53 207.08C1218.34 206.698 1218.25 206.216 1218.25 205.635V201.296H1219.3V205.564C1219.3 206.062 1219.44 206.459 1219.72 206.756C1220 207.052 1220.36 207.2 1220.79 207.2C1221.05 207.2 1221.32 207.134 1221.59 207C1221.86 206.867 1222.09 206.662 1222.27 206.387C1222.46 206.111 1222.55 205.76 1222.55 205.333ZM1225.52 208.125V201.296H1226.54V202.327H1226.61C1226.73 201.989 1226.96 201.715 1227.28 201.505C1227.61 201.294 1227.98 201.189 1228.39 201.189C1228.46 201.189 1228.56 201.191 1228.68 201.194C1228.79 201.197 1228.88 201.201 1228.94 201.207V202.274C1228.9 202.265 1228.82 202.252 1228.69 202.234C1228.57 202.213 1228.44 202.203 1228.3 202.203C1227.97 202.203 1227.67 202.273 1227.41 202.412C1227.15 202.548 1226.95 202.738 1226.8 202.981C1226.65 203.221 1226.57 203.495 1226.57 203.803V208.125H1225.52ZM1238.54 202.825L1237.6 203.092C1237.54 202.935 1237.45 202.782 1237.34 202.634C1237.22 202.483 1237.07 202.358 1236.87 202.261C1236.68 202.163 1236.43 202.114 1236.12 202.114C1235.7 202.114 1235.36 202.21 1235.08 202.403C1234.8 202.593 1234.66 202.834 1234.66 203.128C1234.66 203.388 1234.76 203.594 1234.95 203.746C1235.14 203.897 1235.43 204.023 1235.84 204.124L1236.85 204.373C1237.46 204.521 1237.92 204.747 1238.22 205.053C1238.52 205.355 1238.67 205.745 1238.67 206.222C1238.67 206.613 1238.55 206.963 1238.33 207.271C1238.11 207.58 1237.79 207.823 1237.39 208C1236.99 208.178 1236.53 208.267 1236 208.267C1235.3 208.267 1234.72 208.116 1234.27 207.814C1233.81 207.511 1233.52 207.07 1233.4 206.489L1234.4 206.24C1234.49 206.607 1234.67 206.883 1234.94 207.067C1235.2 207.251 1235.55 207.342 1235.98 207.342C1236.47 207.342 1236.86 207.239 1237.14 207.031C1237.44 206.821 1237.58 206.569 1237.58 206.275C1237.58 206.038 1237.5 205.84 1237.33 205.68C1237.17 205.517 1236.91 205.395 1236.57 205.315L1235.43 205.048C1234.8 204.9 1234.34 204.67 1234.05 204.359C1233.76 204.045 1233.61 203.652 1233.61 203.181C1233.61 202.796 1233.72 202.455 1233.94 202.158C1234.16 201.862 1234.46 201.629 1234.83 201.46C1235.21 201.291 1235.64 201.207 1236.12 201.207C1236.8 201.207 1237.33 201.355 1237.71 201.652C1238.1 201.948 1238.38 202.339 1238.54 202.825ZM1243.21 201.296V202.185H1239.68V201.296H1243.21ZM1240.71 199.66H1241.76V206.169C1241.76 206.465 1241.8 206.687 1241.89 206.836C1241.97 206.981 1242.09 207.079 1242.22 207.129C1242.36 207.176 1242.51 207.2 1242.66 207.2C1242.78 207.2 1242.87 207.194 1242.95 207.182C1243.02 207.168 1243.08 207.156 1243.13 207.147L1243.34 208.089C1243.27 208.116 1243.17 208.143 1243.04 208.169C1242.91 208.199 1242.75 208.214 1242.56 208.214C1242.26 208.214 1241.97 208.15 1241.69 208.023C1241.4 207.895 1241.17 207.701 1240.98 207.44C1240.8 207.179 1240.71 206.85 1240.71 206.453V199.66ZM1247.49 208.267C1246.88 208.267 1246.34 208.121 1245.87 207.827C1245.41 207.534 1245.05 207.123 1244.79 206.596C1244.53 206.068 1244.4 205.451 1244.4 204.746C1244.4 204.035 1244.53 203.414 1244.79 202.883C1245.05 202.353 1245.41 201.941 1245.87 201.647C1246.34 201.354 1246.88 201.207 1247.49 201.207C1248.11 201.207 1248.65 201.354 1249.11 201.647C1249.58 201.941 1249.94 202.353 1250.2 202.883C1250.46 203.414 1250.59 204.035 1250.59 204.746C1250.59 205.451 1250.46 206.068 1250.2 206.596C1249.94 207.123 1249.58 207.534 1249.11 207.827C1248.65 208.121 1248.11 208.267 1247.49 208.267ZM1247.49 207.325C1247.96 207.325 1248.35 207.205 1248.65 206.965C1248.95 206.724 1249.18 206.409 1249.32 206.018C1249.47 205.626 1249.54 205.202 1249.54 204.746C1249.54 204.29 1249.47 203.864 1249.32 203.47C1249.18 203.076 1248.95 202.757 1248.65 202.514C1248.35 202.271 1247.96 202.15 1247.49 202.15C1247.03 202.15 1246.64 202.271 1246.34 202.514C1246.04 202.757 1245.81 203.076 1245.67 203.47C1245.52 203.864 1245.45 204.29 1245.45 204.746C1245.45 205.202 1245.52 205.626 1245.67 206.018C1245.81 206.409 1246.04 206.724 1246.34 206.965C1246.64 207.205 1247.03 207.325 1247.49 207.325ZM1252.19 208.125V201.296H1253.2V202.327H1253.27C1253.4 201.989 1253.62 201.715 1253.95 201.505C1254.28 201.294 1254.64 201.189 1255.05 201.189C1255.13 201.189 1255.23 201.191 1255.34 201.194C1255.46 201.197 1255.55 201.201 1255.6 201.207V202.274C1255.57 202.265 1255.49 202.252 1255.36 202.234C1255.24 202.213 1255.1 202.203 1254.96 202.203C1254.63 202.203 1254.34 202.273 1254.08 202.412C1253.82 202.548 1253.61 202.738 1253.46 202.981C1253.31 203.221 1253.24 203.495 1253.24 203.803V208.125H1252.19ZM1257.73 210.686C1257.55 210.686 1257.4 210.671 1257.26 210.641C1257.12 210.615 1257.02 210.588 1256.97 210.561L1257.23 209.637C1257.49 209.702 1257.71 209.726 1257.91 209.708C1258.11 209.69 1258.28 209.603 1258.43 209.445C1258.58 209.291 1258.72 209.041 1258.85 208.694L1259.05 208.161L1256.52 201.296H1257.66L1259.55 206.738H1259.62L1261.5 201.296H1262.64L1259.74 209.121C1259.61 209.474 1259.45 209.766 1259.26 209.997C1259.06 210.231 1258.84 210.404 1258.59 210.517C1258.33 210.63 1258.05 210.686 1257.73 210.686Z" fill="#EDF738"/>
<defs>
<clipPath id="clip0_4_4085">
<rect width="507.114" height="220.484" fill="white" transform="translate(364.053 93.7422)"/>
</clipPath>
<clipPath id="clip1_4_4085">
<rect width="22.6721" height="20.1529" fill="white" transform="translate(618.971 32.1211) rotate(-133.808)"/>
</clipPath>
<clipPath id="clip2_4_4085">
<rect width="592.562" height="96" fill="white" transform="translate(321.328 157.094)"/>
</clipPath>
</defs>
</svg>
